/* XPM */
static char *_534efd87c2a49bca203c318ea38c950uv5FM4DZj0T8GO4y[] = {
/* columns rows colors chars-per-pixel */
"48 64 235 2 ",
"   c None",
".  c #2E2E2D",
"X  c #323232",
"o  c #3D3C3C",
"O  c #30302F",
"+  c #403F3E",
"@  c #484237",
"#  c #755932",
"$  c #484747",
"%  c #58554A",
"&  c #5B5A58",
"*  c #625F57",
"=  c #645C48",
"-  c #6D685A",
";  c #6A6967",
":  c #737373",
">  c #7E7D7C",
",  c #77746D",
"<  c #AB3D04",
"1  c #B23F00",
"2  c #943F0B",
"3  c #B64703",
"4  c #B75309",
"5  c #AE4E03",
"6  c #B26C10",
"7  c #9A6939",
"8  c #AE7331",
"9  c #9D5523",
"0  c #CB4C00",
"q  c #C14600",
"w  c #C95404",
"e  c #D55300",
"r  c #D85B01",
"t  c #C55D11",
"y  c #D04F00",
"u  c #DC6302",
"i  c #DE6C00",
"p  c #D96503",
"a  c #CB7815",
"s  c #CF7011",
"d  c #E16C01",
"f  c #E37401",
"g  c #E57C01",
"h  c #E97B02",
"j  c #E47A18",
"k  c #E26D11",
"l  c #D77C2E",
"z  c #AD714B",
"x  c #AC7D66",
"c  c #876F56",
"v  c #AE821C",
"b  c #D7991B",
"n  c #D48911",
"m  c #EA8402",
"M  c #EB8B02",
"N  c #E58403",
"B  c #EE9302",
"V  c #EB9807",
"C  c #F29C03",
"Z  c #F19503",
"A  c #E6841C",
"S  c #E39C16",
"D  c #DCA21D",
"F  c #F3A403",
"G  c #F5AB03",
"H  c #F9AD06",
"J  c #F6B303",
"K  c #F9B405",
"L  c #FABC05",
"P  c #FABD08",
"I  c #ECAC1B",
"U  c #E9A318",
"Y  c #F3A916",
"T  c #EFB11C",
"R  c #F3B41D",
"E  c #F9BC1E",
"W  c #F8B219",
"Q  c #D88826",
"!  c #D18E2D",
"~  c #E78926",
"^  c #E8972C",
"/  c #ED9736",
"(  c #EF9839",
")  c #F2B921",
"_  c #F9BB27",
"`  c #EEA436",
"'  c #F4A938",
"]  c #FABC3C",
"[  c #FAB637",
"{  c #F2A62F",
"}  c #FAC305",
"|  c #FCCC06",
" . c #FBC409",
".. c #FCCB0A",
"X. c #FCD30A",
"o. c #FDDB0A",
"O. c #FCD207",
"+. c #FBC417",
"@. c #FDDA12",
"#. c #FDE20F",
"$. c #FEE614",
"%. c #FDC53C",
"&. c #FAC02E",
"*. c #B1844F",
"=. c #878377",
"-. c #908C7F",
";. c #B49177",
":. c #BCA060",
">. c #CF9054",
",. c #F09F43",
"<. c #F5AC44",
"1. c #F2A647",
"2. c #FAB542",
"3. c #FABB43",
"4. c #F9B64A",
"5. c #F4AC53",
"6. c #F6B45C",
"7. c #F8B958",
"8. c #C4977A",
"9. c #CB9268",
"0. c #F7BC65",
"q. c #E7B16E",
"w. c #C2A76A",
"e. c #FCC343",
"r. c #FCC44B",
"t. c #FDC94B",
"y. c #FCC658",
"u. c #FDD458",
"i. c #FBC868",
"p. c #FED365",
"a. c #FDD36B",
"s. c #E8C378",
"d. c #FACC7B",
"f. c #FAC873",
"g. c #FCD47B",
"h. c #8B8B8B",
"j. c #848484",
"k. c #959494",
"l. c #9D9D9D",
"z. c #999795",
"x. c #969286",
"c. c #B99986",
"v. c #A29E95",
"b. c #B8A99B",
"n. c #B6A78F",
"m. c #A09FA0",
"M. c #A4A4A4",
"N. c #ACACAC",
"B. c #B7B3AC",
"V. c #B4B3B3",
"C. c #BCBCBC",
"Z. c #BAB9B5",
"A. c #B2AFA8",
"S. c #C49D84",
"D. c #C2AA9A",
"F. c #C4AD92",
"G. c #C7BAAA",
"H. c #CABFB0",
"J. c #E8C887",
"K. c #FDDB8C",
"L. c #FCD686",
"P. c #E8CD97",
"I. c #EAD09B",
"U. c #FDDD94",
"Y. c #F9D79E",
"T. c #F7CD86",
"R. c #FFE08D",
"E. c #FEE493",
"W. c #FEE49C",
"Q. c #C6C1B5",
"!. c #CAC5BB",
"~. c #CECABE",
"^. c #C8C3B6",
"/. c #D1CBBC",
"(. c #D9CFBB",
"). c #DED4BD",
"_. c #E7CBA4",
"`. c #EAD3A4",
"'. c #E9D5AA",
"]. c #E9D7B2",
"[. c #EADBBD",
"{. c #E7D8B8",
"}. c #F1DFBD",
"|. c #FEE9A4",
" X c #FEE7A6",
".X c #FEEDB0",
"XX c #D3C29A",
"oX c #C3C3C3",
"OX c #CDCBC4",
"+X c #CCCCCC",
"@X c #C8C7C2",
"#X c #D2CDC3",
"$X c #D9CEC1",
"%X c #D6D1C5",
"&X c #DBD3C5",
"*X c #D6D2CA",
"=X c #DAD6CB",
"-X c #DED8CB",
";X c #D3D3D3",
":X c #DDDAD2",
">X c #DCDCDC",
",X c #D9D6D1",
"<X c #EBDDC4",
"1X c #E4DCCC",
"2X c #EBDFC9",
"3X c #E4D8C2",
"4X c #E2DED4",
"5X c #E1DFD9",
"6X c #EEE0C4",
"7X c #EDE1CB",
"8X c #F0E5CD",
"9X c #F0E4C6",
"0X c #E5E1D5",
"qX c #EAE3D4",
"wX c #E5E3DB",
"eX c #EAE6DC",
"rX c #EDE8DE",
"tX c #F2E9D5",
"yX c #F3EBDB",
"uX c #F2E8D3",
"iX c #E4E3E3",
"pX c #E9E7E0",
"aX c #ECEAE3",
"sX c #EDEDEB",
"dX c #F3EEE3",
"fX c #F1EEE9",
"gX c #F6F1E6",
"hX c #F4F2EC",
"jX c #F9F5EB",
"kX c #FAF3E5",
"lX c #F4F3F2",
"zX c #FBF9F5",
"xX c #FFFEFE",
"cX c #FCFCFA",
"vX c #F8F7F3",
/* pixels */
"                                                                          4X:X:X:X,X-X          ",
"                                                      wXwXiXsXsXsXhXlXlXlXlXlXhXsXaXwX5X:X,X=X  ",
"                            *X#X!.!.^.^.!.~.%X-X0XaXsXhXvXcXcXxXxXxXxXxXxXxXxXxXcXzXhXsXwX5X:X:X",
"                          :X:X*X~.Q.Q.^./.=X0XaXhXvXcXcXcXxXxXxXxXxXxXxXxXxXxXxXxXcXcXjXfXeXwX5X",
"                          wX0X*X!.Q.Q.~.:XeXfXlXlXzXzXzXcXcXzXcXcXzXzXzXcXcXcXxXcXcXcXzXhXwXwXwX",
"                          wXwX*XC.Q.~.:XaXhXjXlXvXhXhXgXgXgXdXdXkXyXkXkXjXzXcXcXcXcXcXzXdXwX5XiX",
"                        wXaXwXOXQ.!.=XeXfXfXfXdXrX8XqX7X1X1X).7X6X8XtXkXyXkXjXzXcXcXcXhXwX,XwX  ",
"                        sXsXeX#X!.#X:XeXdXyX9X6X{.{.{.&X).{.3X[.6X7X8XtXyXkXkXzXzXcXvXhX,X=XwX  ",
"                        lXaXwX@X!.*X5XaXyX6X].`._._.[.<X<X2X2X<X[.<X7XuXtXyXkXjXzXvXjXaX%X=X    ",
"                        zXiX:XOXOX,XeXaXuX}.`.I.'._.<X2X2X2X2X2X<X<X[.7XuXtXdXkXvXvXhXeX#X:X    ",
"                      lXxXiX:X+X#X:XeXaX8X`.P._.}.<X<X2X<X2X2X2X<X<X<X6X8XuXyXkXjXjXfXqX%X4X    ",
"              ;X;X;X;X@XcXaX:X*X$X4XpXaX<X`.'.<X2X2X8X2X2X2X2X2X<X<X<X[.[.8XtXyXkXhXgX4X*XwX    ",
"          >X>X+XoX!.oXA.vXsX>X*X*X5XpXeX3X_.3X2X7X7X7X7X2X2X2X2X<X<X{.[.[.6XuXtXkXdXdX4X1X5X    ",
"        >X;XV.l.l.M.V.V.lXsXwX*X=X5XpXeX{.{.1XqX2X8X7X7X2X2X2X<X[.[.[.[.[.<X6XuXyXkXkX5X=X4X    ",
"        >XM.h.j.h.h.k.V.sXsXiX=X1X5XpXeX{.(.qX7X7X6X7X7X2X2X2X<X[.[.[.[.[.[.6X8XyXyXaX2X1X4X    ",
"      >X+Xk.j.          aXhXwX,X1X5XpX4X(.(.eXyX7X2X2X7X2X2X<X].{.{.{.[.[.[.[.8XuXrXyX1X3X,X    ",
"      >XC.k.              jXeX:X:XwXaX0X/.Q.5XfXuX<X<X2XqX2X<X].{.].].].].{.}.9X7XuXtX1X1X-X    ",
"    oXiXV.k.              fXwX:X:XeXaX0XG.# ~.wXfXrX<X3XqXqX<X].'.`.`.`.`.`.].}.7XuXqX1X-X-X    ",
"    oX>XN.k.              fXwX4X0XpXaX:Xv.2 G.*XwXfXaX-X1X2X2X].`.I.I.I.P.P.`.'.}.7X7X1X-X#X    ",
"    oX>XN.              OXfXpX4XwXaXpX=X;.5 ;.=X,X5X5X$X$XqXqX<X'.P.P.J.J.J.P.`.].6X7X3X-X&X    ",
"    +X>XM.              Z.sXwX4X5XaXiX$Xx w t c.,X5X,Xc.D.1XrXyX[.I.J.J.s.s.J.P.].}.8X7X-X#X    ",
"    >X+XM.              OXsXeX0XpXaXpX#X7 t k q < < 1 1 9 (.aXhXgX}.I.s.s.s.s.P.'.}.7X0X-X      ",
"    iXoXM.              aXaXeX0XpXdX5XH.4 s k t y 0 q 1 < S.5XhXvXkX[.P.s.s.J.I.}.8XqX0X(.      ",
"    iXZ.M.              fXaXeX0XeXsX5XA.t k j r y 0 0 q 1 7 3XaXzXcXkX6X`.P.].8XyXrXqX1XG.      ",
"  C.sXV.M.              aXfX0X0X5XdX-Xc.k j j r e y y 0 q 3 D.4XhXcXxXzXdXuXdXkXdXeX5X1X8.      ",
"  oXlXN.M.              aXaX0X4X4X5X/.z j j j k r e y 0 0 3 z $XqXhXcXxXcXcXzXfXaX4X2X1X*.      ",
"  +XlXM.M.              aXaX=XG.#XOXD.s j j j k r e e e w w q c.1XqXfXvXcXcXhXpX4X1X-X-Xs       ",
"  +XlXM.                aXeXQ.2 z n.l ~ ~ / j k u u r r r r r 5 G.&X1XeXpXyX5X4X=X/.$X&Xa       ",
"  ;XlXm.                sXaXb.4 s ! ^ ^ ^ / / k u u r u r r p w 4 G.-X&X1X1X=X&X9.7 *X3Xa       ",
"  ;XsXl.                sXeXn.4 a ^ ^ / ( ( ,.j d d d d u d i p r 4 *.G.$X$XH.>.Q 9 ,X5Xa       ",
"  >XsXz.                dXrXG.6 N D ` ( ,.,.,.l d d d d d i i i i i p t a a ~ ~ Q >.:XeXQ       ",
"N.>XsXk.                dXaXOX6 n ^ ` ` 1.5.1.~ d h h d f f f f d f f i A A ~ ~ ^ 9.:XaX!       ",
"N.>XlXk.              qXdXaX&X8 V ^ ` 1.5.5.5./ h g g N g g g g g f f h / / ^ ^ ^ ,.5X$XA       ",
"V.>XlXk.              eXfXrX&X*.n ` ' 1.5.6.6.( h m N N N N N N g h h h ( 1.' { ' ( _.q.S       ",
"N.>XlXz.              eXfXeXOX8 S { ' 5.0.0.0.( m m M N N N M N m m m m 1.5.<.' ' 2.' V S       ",
"N.>XvXk.              0XaX4X~.6 V ' <.5.0.0.0.( M M M B M B M M M M m m 5.6.5.<.' [ [ Y S       ",
"N.>XlXm.                -X~.b.6 S { 2.7.0.0.f.1.Z Z Z B V V V B M M M M 6.0.6.4.[ 2.[ Y S       ",
"N.;XcXM.                !.^.*.b Y [ 4.7.f.f.f.1.Z Z C B V F V V Z Z Z Z 7.0.7.4.2.2.' Y U       ",
"N.+XcXN.V.                  6 D Y [ 4.y.f.d.d.<.C C C F F V F C C Z Z Z 0.f.0.4.4.] [ Y D       ",
"N.+XcXV.V.                  n U Y 3.4.i.d.T.d.<.C F F F F F F F F C C Z 0.d.i.7.4.3.[ I I       ",
"  oXsX+XN.                  n D Y ] y.i.d.L.T.2.F F H G G G G G G F F C 0.T.i.7.3.3.] W I       ",
"  C.;XiXN.                6 n U W 3.y.i.L.L.L.[ H G G H J J J J G G F H i.T.f.y.3.3.] W I       ",
"  N.C.iXC.V.              6 b I W e.y.f.L.K.K.2.J K K J J J J J K H G H i.L.f.y.3.3.] W T       ",
"    N.N.;XV.V.            8 b I E 3.i.f.L.U.K.2.K K K L L L } J K K H G f.K.g.y.r.e.%.W T       ",
"    N.N.V.C.V.V.V.        8 b I _ r.i.g.U.U.U.3.L L P } } } } } L L K K i.U.g.i.r.r.] E T       ",
"      N.V.C.V.C.+XoXC.B.n.7 b T _ r.u.g.U.U.W._ P P } } } } } } } L P K i.U.g.i.r.e.%.E R       ",
"        m.V.C.oXoX+X;X*XXX*.b R E r.p.g.U.W.W.E }  .} | | | | | } } L P a.W.L.u.r.e.%.E )       ",
"            M.C.oXoXOXZ.w.:.b I _ t.p.L.W.W.W.+. .| | | O.| O.O.| } } } a.W.L.p.t.e.e.E )       ",
"              z.M.C.!.F.:.c.D R &.t.a.L.W.W.|.......X.X.O.O.O.O.| | |  .p.|.L.p.t.%.%.E )       ",
"                h.h.v.F.:.w.D T _ t.a.L.W.|.|.......X.X.O.O.o.O.X...| ..p.|.R.p.t.%.%.E )       ",
"                    : - *.*.D R &.t.a.K.W.|.E...X.X.X.o.o.o.o.o.X.O.....u. XR.p.t.%.%.E )       ",
"                      = = 9 D R &.u.a.R.|.|.E.X.X.X.X.o.o.o.o.o.o.X...| u..XE.p.t.%.%._ )       ",
"                        @ v D T _ y.a.R.|.|.E.+.X.@.@.#.$.#.#.#.o.o.@...u..XE.p.t.%.%.+.)       ",
"                          *.b I _ t.a.K.|.|.E.@.@.@.@.$.$.$.$.$.$.#.@.@.u..XR.p.%.&.[ E R       ",
"                          =.@ # 8 :.q.T.Y.Y.T.C H K P P } P } L K H H H 4. XI.y.' ! ! 8 # %     ",
"                          -.* O + ; l.oX=X4X#XA.D.S.S.S.8.8.8.8.8.S.S.D.D.0X&XB.h.* $ . o -     ",
"                          x.- X + : l.oXiXsXsXsXlXlXcXcXxXxXcXcXcXcXlXsXsXlXiXoXk.; $ X o ;     ",
"                          x.* X $ : l.oX>XiXiX>XiXsXlXlXvXlXcXcXlXsXsXiX>XlXiXC.h.& $ X o ;     ",
"                          x.& O + ; k.C.;X>X;X+X;X>X>X>X>X>XiX>XiX>X>X;X+XsX;XV.j.& $ X o - x.  ",
"                        =.-.% . X & j.N.oX;X+XoX+X+X+X+X;X;X+X;X+X+X+X+XoXiX;XN.> & o X o * =.  ",
"                        =.=.$ . X $ : k.V.C.C.C.oXoXoXoXoXoXoXoXoXoXoXoXC.;XoXm.> $ o O o & ,   ",
"                          - @ . . $ ; h.M.C.V.C.C.oXoXoXoXoXoXoXoXoXoXC.V.oXV.k.; $ X O o %     ",
"                              + o o & > M.C.;X>XiXiXiXiXpXpXiXiXiXiX>X>X+X+XV.k.; $ X           ",
"                                    : : : : > h.z.M.N.V.V.V.Z.V.N.N.m.M.k.>                     "
};
