/* XPM */
static char *_a77d265e0b34054d49e3913540b4f61PG34S1PuZegqCNZS[] = {
/* columns rows colors chars-per-pixel */
"46 64 175 2 ",
"   c None",
".  c #000002",
"X  c #03050D",
"o  c #1F1207",
"O  c #040914",
"+  c #050E1C",
"@  c #070B13",
"#  c #06101F",
"$  c #151213",
"%  c #261D1D",
"&  c #27201E",
"*  c #071322",
"=  c #0A1524",
"-  c #0A1728",
";  c #0C1A2D",
":  c #151925",
">  c #0D1D31",
",  c #101E32",
"<  c #231C20",
"1  c #341F2E",
"2  c #1B212E",
"3  c #132033",
"4  c #1B2334",
"5  c #15263F",
"6  c #272123",
"7  c #392C2D",
"8  c #352725",
"9  c #252633",
"0  c #292630",
"q  c #222838",
"w  c #2B2E3F",
"e  c #292A37",
"r  c #312C30",
"t  c #2E333F",
"y  c #35353D",
"u  c #511710",
"i  c #61160B",
"p  c #7B1C0B",
"a  c #761E17",
"s  c #4E2921",
"d  c #49342C",
"f  c #593B22",
"g  c #543A2A",
"h  c #523822",
"j  c #493732",
"k  c #553939",
"l  c #5E4029",
"z  c #5A4239",
"x  c #644326",
"c  c #6A4727",
"v  c #724B24",
"b  c #6B4B33",
"n  c #162640",
"m  c #1C2A43",
"M  c #242E45",
"N  c #2B3145",
"B  c #2C344A",
"V  c #343A45",
"C  c #3B3B44",
"Z  c #31374C",
"A  c #34394E",
"S  c #393D4B",
"D  c #363545",
"F  c #363B52",
"G  c #393E54",
"H  c #443F40",
"J  c #3B424E",
"K  c #3B4057",
"L  c #3C4158",
"P  c #4A414C",
"I  c #5D4B47",
"U  c #454A52",
"Y  c #454C5A",
"T  c #4D4A5C",
"R  c #494953",
"E  c #554951",
"W  c #594D57",
"Q  c #4F5057",
"!  c #565258",
"~  c #6A534A",
"^  c #62565A",
"/  c #745C5D",
"(  c #776458",
")  c #4D5463",
"_  c #555262",
"`  c #5E5461",
"'  c #5F5C66",
"]  c #675962",
"[  c #7E676B",
"{  c #777475",
"}  c #8E1F0A",
"|  c #962917",
" . c #95392E",
".. c #AB3E2D",
"X. c #9C4335",
"o. c #9F483A",
"O. c #A84B3C",
"+. c #B64635",
"@. c #96544A",
"#. c #A65444",
"$. c #A65748",
"%. c #936C5D",
"&. c #9B7B59",
"*. c #86685C",
"=. c #AF6151",
"-. c #826A6D",
";. c #876B65",
":. c #99766A",
">. c #837073",
",. c #9C7C77",
"<. c #927674",
"1. c #A37B6E",
"2. c #BF7B69",
"3. c #A07C74",
"4. c #DD634E",
"5. c #E16651",
"6. c #E2705C",
"7. c #E37661",
"8. c #E47C67",
"9. c #A48852",
"0. c #B39656",
"q. c #AD8477",
"w. c #AD867C",
"e. c #A78378",
"r. c #B68C7C",
"t. c #BC8D7C",
"y. c #B68576",
"u. c #BE907D",
"i. c #CBAA55",
"p. c #E1BD55",
"a. c #C5806D",
"s. c #CA8774",
"d. c #C78B78",
"f. c #E5846F",
"g. c #E8917B",
"h. c #F5CE4F",
"j. c #F3CC52",
"k. c #8C8B8E",
"l. c #96969C",
"z. c #A08B89",
"x. c #BC9185",
"c. c #9E9EA1",
"v. c #B5B2B2",
"b. c #C29485",
"n. c #CA9B8B",
"m. c #C79987",
"M. c #DC9C87",
"N. c #D49E8A",
"B. c #DD9F89",
"V. c #D5A18E",
"C. c #DCA18C",
"Z. c #D9A591",
"A. c #DEA994",
"S. c #D6A290",
"D. c #E0A28C",
"F. c #EDA68E",
"G. c #E4AB95",
"H. c #EAAC95",
"J. c #E6AF99",
"K. c #ECB19A",
"L. c #F3B59C",
"P. c #E5BBAE",
"I. c #F2B9A6",
"U. c #E6BFB3",
"Y. c #F5C5B3",
"T. c #E9C4B7",
"R. c #C4C4C5",
"E. c #D6D4D5",
"W. c #F5CEC0",
"Q. c #F7D8CE",
"!. c #E9DAD5",
"~. c #F7DFD7",
"^. c #F9E4DC",
"/. c #FBF1EE",
"(. c #FFFEFD",
/* pixels */
"                                        > , 3 >                                             ",
"                                    > > > > > > >                                           ",
"                                  > > > > > > > > >                                         ",
"                                > > > > > > > > > >                                         ",
"                              > > > > > > > > > > >                                         ",
"                          > > > > > > > > > > > >                                           ",
"                      V > > > > > > > > > ; > >                                             ",
"                  Q V > > > > > - + . . . . .                                               ",
"                > > > > > ; * . . . . . O O .                                               ",
"                > > > > = . . X + - > > > > > S                                             ",
"                    ; X . + - > > > > > > > > >                                             ",
"                      i a y.r.:.k 8 > ; > > > >                                             ",
"                      } } C.L.L.Z.#. .C.Z.@.t.N.                                            ",
"                      s.} D.I./.(.~.H.L.I.Y.(.!.                                            ",
"                K.%.. t.=.L.Q.(.v.P G.L.F.^.E.6                                             ",
"                L.z . & V.L.Y.(.{ k K.L.8.I.!.q.                                            ",
"                    . . :.L.L.Y.T.H.L.L.g.5.f.6.6.                                          ",
"                      . $ G.L.L.L.L.L.L.f.5.5.4.5.                                          ",
"                      . . 1.L.L.L.L.L.6.5.5.5.5.5.                                          ",
"                      . . 8 K.L.L.C.a.+.+.4.5.5.4...                                        ",
"                        . . r.M.O.} } } } | +.+.| } }                                       ",
"                        7 . s } } } } } } X.s.X.} } } }                                     ",
"                          . . p } } } o.d.u.r.A.s.O.} } }                                   ",
"                        K.u . i #.y.C.G.q.t.u.e.K.L.H.F.B.                                  ",
"                        G.d.. 6 K.L.L.L.L.L.L.L.L.L.L.L.                                    ",
"                    L L <.K.*.. u.L.L.L.L.L.L.L.L.L.                                        ",
"                  L L L L ` ,.. ~ L.L.L.L.L.L.L.L.                                          ",
"              L L L L L L L L 9 . w.m.V.V.n.x.w.                                            ",
"            L L L L L L L L L G X q G L L L L L L L L L L n                             D.D.",
"          L L L L L L L L L L L q - F L L L L L L L ! L G n m 1.D.                  D.D.D.D.",
"          L L L L L L L L L L L S @ N L L L L L G K &.( ^ n n 1.D.D.D.D.D.D.D.D.D.D.D.D.    ",
"        G L L L L L L L L L L L L q : L L L L L A ( p.j.U n n x.D.D.D.D.C.D.D.D.D.D.        ",
"        n m B Z G G L G L L L G G F X A >.` L L G Z i.j.9.n 5 N.D.D.D.D.D.D.D.C.D.          ",
"        n n n 5 n n B B L L L G G ] m.K.L.,.L L L N &.0.B 5 D D.D.D.D.D.D.D.D.              ",
"        n.3.E 5 n n n M L Z B B N S.L.L.L.b.L L L F Z ^ B n / D.D.D.D.D.                    ",
"        L.L.L.A.x.>.W ] T B n E q.L.L.L.L.Z.L L L K M   Y n z.T.P.                          ",
"        L.L.L.L.L.L.L.L.L.G.H.L.L.L.L.L.L.x.K L L L B                                       ",
"        L.L.L.L.L.L.L.L.L.L.L.L.L.L.N.z.*.N K K L L F N                                     ",
"        L.L.L.L.L.L.L.L.L.L.L.L.I.J.` G Z Z G L L L L M L                                   ",
"          L.L.L.L.L.L.L.L.L.L.L.K.>.L H L L L L L L L B F L                                 ",
"            L.L.L.L.L.L.L.L.L.G.[ G L L L L L L L L L F B L l.                              ",
"            x.G.I.L.L.L.L.A.z.T L G L L L L L L L L L L M L Y                               ",
"            K K ! [ >.-.! L L L L L L L L L L L L L L L B L L                               ",
"              L L L L L G L L L L L L L L L L L L L L L B K L                               ",
"              L L L L L L L L L L L L G L L L L L L L L F F L                               ",
"                L L L L L L L L L L B Y G L L L L L L L K F L                               ",
"                L L L L L L L L L G t ) T A G L L L L L L G                                 ",
"                L L L L L L L L L L D D _ _ w B L L L L L _                                 ",
"                  L L L L L L L L L P f r Y : = t G L G Z ]                                 ",
"                  L L L L L L L L L L j f < = = h j : X . !                                 ",
"                  F F G G L G F S Z N 0 f * 2 Q x o X + - U                     . .         ",
"                  . . . . # ; . . . . O < = J I g ; > , > > >                   .           ",
"                    * + + * > # # * - 8 x l b v 7 > > > > > > > >               .           ",
"                    > > > > > > > > > l v v v c > > > > > > > > > > >           .           ",
"                    > > > > > > , > 0 v v v v d > > > > > > > > > > > > >       .           ",
"                    > > > > > > ; ; g v v v c 4 > > > > > > > > > > > > > q @ .             ",
"                  > > > > > > > > > x v v v g > > > > > > > > > > > > > > > O .             ",
"        - > > ; > > > > > > > > > > 0 x v v 9 > > > > > > > 3 C U U C , > > # .             ",
"      . - > > > > > > > > > > > > > > , 7 0 > > > D k.c.R.E.                * .             ",
"    . . - > > > > > > > > > > > , > >                                                       ",
"    . .     > > > > > > > > >                                                               ",
"  . .           > > > >                                                                     ",
". . .                                                                                       ",
".                                                                                           "
};
