/* XPM */
static char *_88cb4823c61460c88dd80e7fd224268fRhGQ68U1u7By2KN[] = {
/* columns rows colors chars-per-pixel */
"36 64 154 2 ",
"   c None",
".  c #000001",
"X  c #02050B",
"o  c #07080D",
"O  c #060C15",
"+  c #050E19",
"@  c #0B0D14",
"#  c #06111E",
"$  c #0F121D",
"%  c #10111A",
"&  c #071321",
"*  c #091625",
"=  c #0B1826",
"-  c #0B1B2B",
";  c #131620",
":  c #111C26",
">  c #0D1E30",
",  c #19202B",
"<  c #132132",
"1  c #1B2130",
"2  c #192833",
"3  c #2A272C",
"4  c #202330",
"5  c #282836",
"6  c #212B3E",
"7  c #4D3216",
"8  c #43332E",
"9  c #443A36",
"0  c #7E3E3A",
"q  c #5F452E",
"w  c #634328",
"e  c #754E27",
"r  c #764E28",
"t  c #78512E",
"y  c #6D4E37",
"u  c #74533B",
"i  c #152640",
"p  c #1B2A43",
"a  c #232E44",
"s  c #2B2F41",
"d  c #273043",
"f  c #2B3246",
"g  c #26324A",
"h  c #2B344B",
"j  c #323346",
"k  c #32364A",
"l  c #33384C",
"z  c #343943",
"x  c #353C52",
"c  c #393E54",
"v  c #453D47",
"b  c #3C4157",
"n  c #3C4158",
"m  c #36495A",
"M  c #3E576A",
"N  c #49414E",
"B  c #53444B",
"V  c #4A4757",
"C  c #46465A",
"Z  c #544E57",
"A  c #524C58",
"S  c #5D5357",
"D  c #5C505E",
"F  c #6A564F",
"G  c #645457",
"H  c #615358",
"J  c #786656",
"K  c #7C6A56",
"L  c #7E666A",
"P  c #7B6262",
"I  c #696770",
"U  c #8E1F0B",
"Y  c #8E200C",
"T  c #932D1C",
"R  c #983727",
"E  c #9A3D2E",
"W  c #A63726",
"Q  c #AE3E2E",
"!  c #9E4231",
"~  c #BF4B3A",
"^  c #C04C3B",
"/  c #C5503E",
"(  c #A85746",
")  c #AA5947",
"_  c #84655C",
"`  c #89625A",
"'  c #B36654",
"]  c #A8795D",
"[  c #BC725F",
"{  c #8D6C68",
"}  c #94726C",
"|  c #9C7B78",
" . c #AE7E6F",
".. c #A37166",
"X. c #BC7461",
"o. c #A77C72",
"O. c #E46552",
"+. c #E56855",
"@. c #E77C67",
"#. c #E87A65",
"$. c #BA9C53",
"%. c #BEA053",
"&. c #AB8071",
"*. c #A8817A",
"=. c #B78A77",
"-. c #B4877B",
";. c #B1887E",
":. c #BB8B7B",
">. c #D5B552",
",. c #C6816C",
"<. c #C8846F",
"1. c #C98570",
"2. c #D18E78",
"3. c #CF927E",
"4. c #D3917A",
"5. c #E8836D",
"6. c #EA8C76",
"7. c #E18A76",
"8. c #EB957E",
"9. c #EBC94F",
"0. c #F0D24E",
"q. c gray56",
"w. c #999593",
"e. c #BB8E81",
"r. c #B18981",
"t. c #AD928B",
"y. c #A89B9C",
"u. c #B59A98",
"i. c #C49484",
"p. c #CF9A85",
"a. c #CC9988",
"s. c #D29C89",
"d. c #D79B83",
"f. c #EB9C85",
"g. c #DDA28D",
"h. c #D0A18B",
"j. c #D9A390",
"k. c #E2A48E",
"l. c #E6AB95",
"z. c #E9AB93",
"x. c #F1AE95",
"c. c #EDB199",
"v. c #F2B49B",
"b. c #CDB6B1",
"n. c #E7BCAE",
"m. c #F2B8A0",
"M. c #F3BEA9",
"N. c #F4C6B4",
"B. c #C2C1C1",
"V. c #F7D8CC",
"C. c #F5D3C5",
"Z. c #E3DEDC",
"A. c #F9E6DF",
"S. c #F7F6F4",
/* pixels */
"                                <                                       ",
"                            > > > > > >                                 ",
"                          > > > > > > > >                               ",
"                      > > > > > > > > > > > >                           ",
"                    > > > > > > > > > > > > > >                         ",
"                    > > > > > > - - > > > > > > 2                       ",
"                    - > - - = * * * = - > > - >                         ",
"                    - + X . . . . . . . . # -                           ",
"                      X . . . . . . . . . X :     C.                    ",
"                      > > - - - - - - - > > <     v.M.                  ",
"                      ` B > < > > > > > 5 _ 0     v.v.v.                ",
"                      z.v.b.|  .-.3...u.n.v.!       v.v.                ",
"                      z.V.S.q.g.6.f.r.B.S.v.X.        v.v.              ",
"                      v.N.Z.F 2.O.#.:.w.A.v.z.            v.v.          ",
"                      v.v.v.x.#.O.+.v.v.v.v.c.              v.v.        ",
"                    v.v.v.v.6.O.O.O.5.v.v.v.m.                v.v.      ",
"                    v.v.v.8.O.O.O.O.O.f.v.v.v.                v.v.v.    ",
"                    v.v.2.! Q ^ / ^ W T ,.c.v.v.                v.v.    ",
"                    v.X.Y Y U E X.( U U U ' v.v.                v.v.v.  ",
"                    4.) X.1.d.s.a.a.4.X.R Y 1.v.                v.v.v.  ",
"                    z.v.v.v.c.z.v.v.c.v.v.l.2.v.              v e.v.v.v.",
"                    *.z.v.v.v.v.v.v.v.v.v.v.v.a.            n h i } c.v.",
"                b b c V -.l.v.v.v.v.v.v.l.i.P n b b b b n n b b h i H j.",
"          b c C b b c c g a P l.z.l.s.N p h c b b b b b b b b n n x p j ",
"          b b b b b b b h p i :.k.k.o.i a c c n n n n n b b b b n b x   ",
"        b b b b b b b b c g i H g.d.B p l c n n n n b n b b b b b       ",
"        b b b b b b b b b b c g r.o.h c n n c c b b b b b b b b         ",
"      b b b b b b b b b b b b b D C n n n n G x b b b b b b             ",
"      n n b b b b b n n b b b b c n b b H A >.A G n b b b               ",
"    c b b b b h p g g g g a c b x n b b V >.0.9.J n b b                 ",
"    i g c n b x a i i i a g b b l b b b A >.0.9.K b b                   ",
"    i i i g c b n b x c n n n b h b b b Z V $.Z G n b                   ",
"  v.a.{ j i a b b b b b b b b b f b b b b b G n b b b                   ",
"  v.v.v.c.e.x b b b b b b b b b d b n b b b b b b b b                   ",
"v.v.v.v.v.-.b b b b b b b b b b a b b b b b b b b b b                   ",
"v.v.v.c.v.L b b b b b b b b b b 6 b b b b b b b b b b                   ",
"v.v.v.v.v.C n b b b b b b b b b 6 b b b b b b b b b b                   ",
"v.v.v.v.j.n b b b b b b b b b b 6 b b b b n b b b b b                   ",
"v.v.v.v.i.n b b b b b b b b b c 6 b b b b b b b b b b                   ",
"v.v.v.v.r.n b b b b b b b b b b 6 b b b b b b b b b b                   ",
"  v.v.v.t.n n n b b b b b b b b d b b b b b b b b b b                   ",
"  v.v.v.y.n n n b b b b b b b c f b b b b b b b b b b                   ",
"  v.v.c.I c n n b b b b b b b b h b b b b b b b b b b                   ",
"  v.v.c.M : h n b b b b b b b b l b b b b b b b b b l                   ",
"  v.v.l.z * = q c n b b b b b b x b b b b C b c h : %                   ",
"    v.c.` 2 5 7 @ 4 s l c b b n b b b x l d , o O = -                   ",
"    v.c.&.m y 3 = + . . . o % ; % % O . . X # - - & O                   ",
"    v.a.u y w > > > > - * # + + + # # * - > - = & +                     ",
"    h.h.] t 8 > > > > > > > > > > > > > > > > # > *                     ",
"    t e e r , - > > > > > > > > > > > > > > > = - -                     ",
"    e e e     > > > > > > > > > > > > > > > > > =                       ",
"      e       > > > > > > > > > > > > > > > > > >                       ",
"              > > > > >             > > > > > >                         ",
"                > > > >               > > > > >                         ",
"                > > > >               > > > > >                         ",
"                > > > >               > > > >                           ",
"                  > > >               > > > >                           ",
"                  > > >                 > >                             ",
"                  > > >                 > >                             ",
"                    > >                 >                               ",
"                    # = >             - =                               ",
"                  . . . X             . . . .                           ",
"                . . . . . .         . . . . .                           ",
"                .                   . . . . .                           "
};
