/* XPM */
static char *f8b0ef515cf94543ba80000888664ae6czIbhZsSeDbYmp1r[] = {
/* columns rows colors chars-per-pixel */
"45 64 147 2 ",
"   c None",
".  c #000104",
"X  c #01040B",
"o  c #020710",
"O  c #030A15",
"+  c #030E1C",
"@  c #06111E",
"#  c #300C0B",
"$  c #071422",
"%  c #091625",
"&  c #0C1827",
"*  c #0C1B2C",
"=  c #0E1E31",
"-  c #101E30",
";  c #17273F",
":  c #19283F",
">  c #24232F",
",  c #332727",
"<  c #372B2D",
"1  c #2C2730",
"2  c #262A38",
"3  c #32353A",
"4  c #4D321C",
"5  c #7D261F",
"6  c #4E3629",
"7  c #473227",
"8  c #563B28",
"9  c #5A3D27",
"0  c #5F3E3A",
"q  c #67431F",
"w  c #68441F",
"e  c #5D443B",
"r  c #624122",
"t  c #6B4620",
"y  c #62432B",
"u  c #77433F",
"i  c #1D2A42",
"p  c #242F46",
"a  c #2D3245",
"s  c #2D354B",
"d  c #30374E",
"f  c #323B4C",
"g  c #373B45",
"h  c #353B51",
"j  c #3A3F55",
"k  c #35404D",
"l  c #3A4255",
"z  c #3E4957",
"x  c #3C4158",
"c  c #4C424D",
"v  c #534346",
"b  c #444152",
"n  c #434850",
"m  c #4F4F52",
"M  c #444B5C",
"N  c #504F54",
"B  c #4F5051",
"V  c #57575F",
"C  c #604F4F",
"Z  c #685659",
"A  c #735E5C",
"S  c #7D6056",
"D  c #4B5768",
"F  c #485464",
"G  c #5C5C66",
"H  c #58606D",
"J  c #746C6C",
"K  c #8E1F0A",
"L  c #952B1B",
"P  c #98392A",
"I  c #923A32",
"U  c #A73A2A",
"Y  c #A24D3E",
"T  c #B24433",
"R  c #93594F",
"E  c #A55242",
"W  c #A85747",
"Q  c #A95949",
"!  c #93665D",
"~  c #AD6251",
"^  c #B96F5D",
"/  c #846C6E",
"(  c #96756E",
")  c #8F7070",
"_  c #9C7A71",
"`  c #A47C6E",
"'  c #BF7764",
"]  c #A47F76",
"[  c #CF5948",
"{  c #CB5745",
"}  c #D45D4B",
"|  c #D56B59",
" . c #E16653",
".. c #E16855",
"X. c #C37D6A",
"o. c #AB8479",
"O. c #B2887A",
"+. c #BB8D7A",
"@. c #CD8A76",
"#. c #CA8C79",
"$. c #D3907B",
"%. c #E88973",
"&. c #7C7D81",
"*. c #888B92",
"=. c #939394",
"-. c #B79182",
";. c #BF9384",
":. c #A0A2A7",
">. c #C69886",
",. c #C89887",
"<. c #C19588",
"1. c #CB9C8B",
"2. c #D79680",
"3. c #DF9F88",
"4. c #DC9D87",
"5. c #EB9780",
"6. c #E09A84",
"7. c #CFA08D",
"8. c #DCA48E",
"9. c #D6A28E",
"0. c #DFA893",
"q. c #D9A693",
"w. c #E3A48C",
"e. c #EBA48D",
"r. c #E4A591",
"t. c #E4AA95",
"y. c #EAAC95",
"u. c #E7AF99",
"i. c #E8AF98",
"p. c #F0AD95",
"a. c #EEB29A",
"s. c #F1B59C",
"d. c #C0BFBF",
"f. c #EDB8A4",
"g. c #F1B7A0",
"h. c #F2B8A0",
"j. c #EEC0AE",
"k. c #F2C1AE",
"l. c #EBC5B9",
"z. c #C4C4C5",
"x. c #F3D8CF",
"c. c #F7DBD1",
"v. c #F8E5DE",
"b. c #F5E3DE",
"n. c #FCF0EC",
"m. c white",
"M. c #F9F6F5",
/* pixels */
"                        = = = *                                                           ",
"                      = = = = = = -                                                       ",
"                    = = = = ; * = =                                                       ",
"                  = = = = * = * = =                                                       ",
"                = = = = = = = = - =                                                       ",
"              - = = - = * * * = -                                                         ",
"            = = * % O . . . . O                                                           ",
"        = = * + . . . O @ @ + O                                                           ",
"      = - $ . X @ * = = = = = n d.                                                        ",
"          # e C 2 = = = = = = = g                                                         ",
"          K ~ s.s.#.5 R O.! C `                                                           ",
"    s.f.y.Y ^ s.c.n.l.$.s.s.c.v.                                                          ",
"    y.t.a.4.@.k.m.z.J s.p.f.m.N                                                           ",
"      r.t.s.p.h.M.=.R s.e.%.x.-.                                                          ",
"        i.a.s.s.f.j.s.s.s. . . . .                                                        ",
"        s.s.s.s.s.a.s.s.5. . . . .                                                  :.*.H ",
"          s.s.s.s.s.s.e.} |  . . .|                                     l D F F M z l k f ",
"          s.s.s.s.$.E K K U { [ T K                                   % & & $ $ % * $ %   ",
"            s.y.W K K K K K W P K K K I                             @ % % & * % %         ",
"            s.E K K K K Y @.1.w.X.L K K K                           a.s.u.>.              ",
"            @.K L Q X.w.7.O.+.o.a.s.w.6.                        s.s.s.s.s.s.              ",
"          1.6.t.s.h.s.s.s.s.s.s.a.s.s.s.                      s.s.s.s.s.i.                ",
"          x o.;.;.7.t.a.s.s.s.s.                        h.s.s.s.s.f.s.a.8.                ",
"        x x x x x x x b / o.)                       s.s.s.s.s.s.a.u.1.S +.                ",
"        x x x x x x x x x d i ;             s.s.s.s.s.s.s.s.s.s.a.A f                     ",
"      x x x x x x x x x x h i ; 9.s.s.s.s.s.s.s.s.s.s.s.s.s.s.s.r.                        ",
"      x x x x x x x x x x h ; ; ;.s.s.s.s.s.s.s.s.s.s.s.s.s.a.y.                          ",
"      x x x x x x x x x x l ; ; _ s.s.s.s.s.s.s.s.s.s.s.s.s.r.                            ",
"      x x x x x x x x x x x i ; Z s.s.s.s.s.s.s.s.s.s.s.s.                                ",
"    x x x x x x x x x x x x p ; : a.s.s.s.s.s.s.s.s.a.                                    ",
"    x x x x x x x x x x x x s ; ; ,.s.s.s.s.s.s.s.                                        ",
"    x x x x x x x x x x x x h i ; _ q.0.a.                                                ",
"    x x x x x x x x x x x x j s s h x )                                                   ",
"    x x x x x x x x x x x x x x x x x                                                     ",
"  x x x x x x x x x x x x x x x x x x                                                     ",
"  x x x x x x x x x x x x x x x x x x x                                                   ",
"  x x x x x x x x x x x x x x x x x x x                                                   ",
"  x x x x x x x x x x x x x x x x x x x x                                                 ",
"  x x x x x x x x x x x x x x x x x x x x                                                 ",
"  x x x x x x x x x x x x x x x x x x x x                                                 ",
"  x x x x x x x x x x x x x x x x x x x x                                                 ",
"  x x x x x x x x x x x x x x x x x x x x                                                 ",
"  x x x x x x x x x x x x x x x x x x x x                                                 ",
"  x x x x x x x x x x x x x x x x x x x x                                                 ",
"    x x x x x x x x x x x x v e c x x x x                                                 ",
"    x x x x x x x x x x x b q q q e b x j G                                               ",
"    x x x x x x j x x j x b w q q w y , . m                                               ",
"      d j j j j j h h a 3 2 4 q q q w 7 % G G                                             ",
"      . . . . % % . . . . X O r q q t > = = = =                                           ",
"      = * % $ * * % % * * = < t t t 8 = = = = = =                                         ",
"        = = = = = = = = = = 9 t t t < = = = = = = = =                                     ",
"        = = = = = - = = = 1 t t t y = = = = = = = = =                                     ",
"        = = = = = = = = = 6 t t t 7 = = = = * ; = = =                                     ",
"        * = = = = =                     = * * = = = = =                                   ",
"          = = = = =                           = = = = =                                   ",
"          = = = = =                               = = =                                   ",
"          = - = = =                               = = =                                   ",
"          = = = = =                               = =                                     ",
"        &.= = = = =                               = =                                     ",
"      = = = = = =                                 = =                                     ",
"  * = = = = =                                     = =                                     ",
". % =                                             = * 3 . . . . B                         ",
". o X                                             $ . . . . . .                           ",
"  . . .                                           . . .                                   "
};
