/* XPM */
static char *dd92a5ea8aa64c1c8d20c3bb693b8e07wj3RWNBpSmrs5Won[] = {
/* columns rows colors chars-per-pixel */
"31 64 153 2 ",
"   c None",
".  c #000000",
"X  c #010409",
"o  c #030710",
"O  c #040A14",
"+  c #060F1C",
"@  c #0C0E17",
"#  c #06111E",
"$  c #2B211D",
"%  c #071221",
"&  c #091525",
"*  c #0A1728",
"=  c #0D1B2D",
"-  c #171924",
";  c #151E2F",
":  c #1A1E2B",
">  c #0E1D31",
",  c #1C1F31",
"<  c #321C28",
"1  c #1E212F",
"2  c #1D2333",
"3  c #1C263A",
"4  c #222328",
"5  c #2F2F31",
"6  c #212738",
"7  c #252838",
"8  c #282C3D",
"9  c #212535",
"0  c #342D36",
"q  c #363638",
"w  c #571D14",
"e  c #7E2C16",
"r  c #592527",
"t  c #4D2B33",
"y  c #7A332E",
"u  c #743231",
"i  c #5F453A",
"p  c #162740",
"a  c #1A2942",
"s  c #262E42",
"d  c #2B2E40",
"f  c #2B3145",
"g  c #2D354B",
"h  c #3B3C45",
"j  c #31374D",
"k  c #34394E",
"l  c #363C52",
"z  c #393E55",
"x  c #423D4C",
"c  c #3B4057",
"v  c #3C4158",
"b  c #4A4448",
"n  c #524F4D",
"m  c #4B4957",
"M  c #514C5C",
"N  c #5E4F55",
"B  c #555250",
"V  c #5C5A5A",
"C  c #575358",
"Z  c #6A4F44",
"A  c #644B4A",
"S  c #6E5045",
"D  c #7C5B4E",
"F  c #6E595B",
"G  c #6A5D57",
"H  c #7D5C57",
"J  c #62605D",
"K  c #575864",
"L  c #5B5764",
"P  c #665C62",
"I  c #705E66",
"U  c #7A5F60",
"Y  c #6B6866",
"T  c #7F686B",
"R  c #74686A",
"E  c #6B6971",
"W  c #797674",
"Q  c #862E13",
"!  c #8C3B26",
"~  c #984F3C",
"^  c #9E523F",
"/  c #B74D39",
"(  c #844F45",
")  c #805D55",
"_  c #8E7456",
"`  c #A6614E",
"'  c #AF6956",
"]  c #A96652",
"[  c #82696B",
"{  c #8B6D6A",
"}  c #9C7566",
"|  c #99756A",
" . c #9B7A76",
".. c #947672",
"X. c #B77763",
"o. c #BC7B67",
"O. c #A67E73",
"+. c #C85743",
"@. c #DD634F",
"#. c #E36652",
"$. c #C07F6A",
"%. c #E77E69",
"&. c #E67C67",
"*. c #A18055",
"=. c #AD816F",
"-. c #A68079",
";. c #AC857C",
":. c #AA8075",
">. c #B88977",
",. c #BF8F7B",
"<. c #BF917F",
"1. c #CBA452",
"2. c #C1826D",
"3. c #CA8C76",
"4. c #CD8E78",
"5. c #C68975",
"6. c #C9907F",
"7. c #D2957F",
"8. c #D0A079",
"9. c #F0C366",
"0. c #8C8885",
"q. c #918D8B",
"w. c #9A9592",
"e. c #B98F84",
"r. c #B9A6A1",
"t. c #C49483",
"y. c #CD9985",
"u. c #CD9A87",
"i. c #DA9C85",
"p. c #D39D8A",
"a. c #ED9E87",
"s. c #EC9F8A",
"d. c #D6A18D",
"f. c #DBA38D",
"g. c #DEA792",
"h. c #E1A38B",
"j. c #EEA58E",
"k. c #E2A690",
"l. c #E5AB94",
"z. c #EAAB94",
"x. c #EAAF98",
"c. c #F0AE96",
"v. c #EEB29A",
"b. c #F2B59C",
"n. c #DAB9AE",
"m. c #F5CBBC",
"M. c #F4C5B4",
"N. c #D7D7D7",
"B. c #E8CDC5",
"V. c #F5CFC1",
"C. c #F5D8CF",
"Z. c #F1E3DE",
"A. c #FDFDFD",
/* pixels */
"                          > >                                 ",
"                        > > > >                               ",
"                      > > > > > > >                           ",
"                      > > > > > > > >                         ",
"                      > > > > > > > > >                       ",
"                      > > > > > > > > > > >                   ",
"                          X . . X # & > > > > >               ",
"                          X O O X . . X & = > = > > >         ",
"                        > > > > > = % O . X & > > > >         ",
"                        > > > > > = > > = # X O =             ",
"                        A t A H H r ( t.f.5.Q w               ",
"                          B.h.b.4.6.C.V.b.4.Q X.v.            ",
"                        q.A.M.x.b.r.N.A.m.i.' b.v.z.          ",
"                         .Z.a.a.b.H N A.m.v.h.x.g.z.          ",
"                        %.&.#.c.b.l.n.m.b.b.b.z.k.            ",
"                        #.#.#.j.b.b.b.b.b.b.b.b.              ",
"                      #.#.#.#.#.j.b.b.b.b.b.b.                ",
"                      +.#.@./ Q ^ 2.h.b.b.b.b.                ",
"                    Q Q Q ! Q Q Q Q Q o.b.b.b.                ",
"                  Q Q ` h.z.X.Q Q Q Q Q ] b.b.                ",
"                7.7.l.b.y.f.O.k.2.~ Q Q Q 3.c.                ",
"              <.b.b.b.b.t.. Z b.b.b.h.s.4.>.x.m               ",
"            l M f.b.b.b.b.y.g.b.b.b.b.b.b.k.I z l s >         ",
"            k k g } 5.b.b.b.b.b.v.>.t.x.O.l m z v v z s 3     ",
"          . . . . . . x p.z.x.k.D 0 F g g v v v v v v v v     ",
"      b.} . . . . . . a p.z.l.} | { p z v v v v v v v v v v   ",
"    b.x.i . . . . . . l t.b.b.b.b.b.-.v v v v v v v v v v v v ",
"  b.b.g.S . . . . . . z y.b.b.b.b.b.b.[ v v v v v v v v v v v ",
"  b.b.d.$ . . . . . . - F b.b.b.b.b.b.d.G v v v v v v v v v v ",
"b.b.b.b.S . . . . . . k R b.b.b.b.b.b.b.1.*.v v v v v v v v v ",
"b.b.b.p.. . . . . . . k l p.b.b.b.b.b.b.9._ v g g z v v v v v ",
"b.b.b.y.. . . . . . . k l [ x.b.b.b.b.b.b.8.v p p p a j v v v ",
"        . . . . . . . k k v M ;.p.l.b.b.b.b.e.e.p.O.b p a l v ",
"      . . . . . . . . f k v v v z M x.b.b.b.b.x.b.b.b.t.N p   ",
"      . . . . . . . . 6 l c v v v v ;.b.b.b.b.b.b.b.b.b.v.O.  ",
"      - . . . . . . . ; c v v v v v M x.b.b.b.b.b.b.b.b.b.    ",
"      : X . . . . . . = v v v v v v v  .b.b.b.b.b.b.b.b.b.    ",
"      v v v v v v c l 8 v v v v v v z v p.b.b.b.b.b.b.b.b.    ",
"    v v v v v v v v v f v v v v v v l z L l.b.b.b.b.b.b.b.    ",
"    v v v v v v v v v f v v v v v v z v z T v.b.b.b.b.b.d.    ",
"    v v v v v v v v v s v v v v v v z v v v [ b.b.b.b.v.[     ",
"    v v v v v v v v v g v v v v v v l v v v v I g.b.b.;.      ",
"    v v v v v v v v c j v v v v v v z z v v v v v .. .v       ",
"    d k v v v v v v v k v v v v v v v l v v v v v v v v       ",
"    % ; l v v v v v v l v v v v v v j 9 7 8 v v c c v v       ",
"    = = O 7 f v v v v c v v v v v m q q.q.E l v g f 9         ",
"    < > > & > 2 f K E E K v v v v l q w.w.W 7 2 * * *         ",
"    u 2 > > = = % b @ ; P 7 8 8 3 2 5 B B J # = = * #         ",
"    y t > > > > > h C K n * & & & = 5 V Y Y = # # X           ",
"    y u , > > > > > > > > > > > > > q E J W = & 1             ",
"        U > > > > > > > > > > > > > 4 b B B # = >             ",
"            > > > > > > > > > > > ; * % # # = #               ",
"                  > > > > > >     > > > > > > *               ",
"                    2 >           > > > > > >                 ",
"                    > >           > > > > > >                 ",
"                    > >           > > > > >                   ",
"                    > > >           > > > >                   ",
"                    > > >           > > >                     ",
"                      > >           > > >                     ",
"                      > >           > 2 >                     ",
"                      > >           > >                       ",
"                      2 > >         > > =                     ",
"            . . . . . X & >         = O . . . . . .           ",
"                                    X . . . . . . .           "
};
