/* XPM */
static char *d23530496e3a42e2a1f57f4b13d22dd7f8EgWyq32HwYh63c[] = {
/* columns rows colors chars-per-pixel */
"35 64 221 2 ",
"   c None",
".  c #140F0B",
"X  c #16110D",
"o  c #1A130E",
"O  c #1D1612",
"+  c #1E1912",
"@  c #231B15",
"#  c #241E18",
"$  c #211612",
"%  c #39151C",
"&  c #2A0E14",
"*  c #2B231C",
"=  c #26211B",
"-  c #33251D",
";  c #3B241D",
":  c #171721",
">  c #2C2420",
",  c #282526",
"<  c #342B24",
"1  c #3A2D26",
"2  c #372B28",
"3  c #382A27",
"4  c #37312A",
"5  c #3B342C",
"6  c #3A3127",
"7  c #3F3933",
"8  c #3E3735",
"9  c #452A27",
"0  c #532A2E",
"q  c #42332C",
"w  c #4C3028",
"e  c #552E33",
"r  c #433B33",
"t  c #4A3C32",
"y  c #483734",
"u  c #5D3B34",
"i  c #573937",
"p  c #63383B",
"a  c #4C443B",
"s  c #4C4339",
"d  c #5B433B",
"f  c #5A4A3E",
"g  c #55443A",
"h  c #65443A",
"j  c #68463E",
"k  c #773845",
"l  c #673D42",
"z  c #554D43",
"x  c #5B4F44",
"c  c #5C534B",
"v  c #5C5146",
"b  c #555459",
"n  c #4D4A43",
"m  c #624D42",
"M  c #6D4B41",
"N  c #634C48",
"B  c #674543",
"V  c #734C44",
"C  c #734C49",
"Z  c #7C4C4B",
"A  c #77484A",
"S  c #625245",
"D  c #655549",
"F  c #6B544B",
"G  c #6C5A4E",
"H  c #675448",
"J  c #75534B",
"K  c #7B554D",
"L  c #735B4F",
"P  c #795649",
"I  c #6E5C52",
"U  c #695758",
"Y  c #755651",
"T  c #7C5451",
"R  c #725E52",
"E  c #7C5D54",
"W  c #755B5A",
"Q  c #7B5D5C",
"!  c #756155",
"~  c #7B6255",
"^  c #756359",
"/  c #7B655A",
"(  c #7D6A5D",
")  c #796856",
"_  c #686154",
"`  c #5E5D66",
"'  c #715D63",
"]  c #696668",
"[  c #7D6662",
"{  c #7E6B63",
"}  c #736666",
"|  c #796E71",
" . c #7A7575",
".. c #6A6B73",
"X. c #82544D",
"o. c #864D56",
"O. c #845C54",
"+. c #885D54",
"@. c #835D59",
"#. c #8C5D5A",
"$. c #845551",
"%. c #93565B",
"&. c #836256",
"*. c #8A6156",
"=. c #83645B",
"-. c #8B645C",
";. c #836A5D",
":. c #8A6A5E",
">. c #93695D",
",. c #90665A",
"<. c #8B705F",
"1. c #8F5A64",
"2. c #985B66",
"3. c #856C61",
"4. c #8B6D63",
"5. c #8B6A69",
"6. c #936C62",
"7. c #936C6B",
"8. c #976A69",
"9. c #867263",
"0. c #8A7365",
"q. c #8D756B",
"w. c #8D796B",
"e. c #917263",
"r. c #997165",
"t. c #937867",
"y. c #93746A",
"u. c #9D756A",
"i. c #937B6D",
"p. c #9C7B6D",
"a. c #8E7B72",
"s. c #8A7677",
"d. c #937373",
"f. c #9C7672",
"g. c #937C73",
"h. c #9B7D74",
"j. c #947B7C",
"k. c #9C7F7A",
"l. c #996670",
"z. c #A17A6E",
"x. c #A36778",
"c. c #A27D75",
"v. c #A27F7A",
"b. c #A17472",
"n. c #A0626A",
"m. c #97836F",
"M. c #948174",
"N. c #9D8273",
"B. c #95827A",
"V. c #9C847C",
"C. c #9A897B",
"Z. c #A28375",
"A. c #A28976",
"S. c #A4857B",
"D. c #AA867C",
"F. c #A48A7C",
"G. c #A98E7D",
"H. c #A88377",
"J. c #B0867E",
"K. c #967F80",
"L. c #AE7787",
"P. c #7A808D",
"I. c #88838B",
"U. c #9E8681",
"Y. c #9D8982",
"T. c #8A8D95",
"R. c #94949D",
"E. c #A48682",
"W. c #AA8582",
"Q. c #A38B84",
"!. c #AB8C84",
"~. c #A68D88",
"^. c #AB8D8A",
"/. c #B18C86",
"(. c #B38D8A",
"). c #B98F8C",
"_. c #AC9184",
"`. c #A79089",
"'. c #AD928B",
"]. c #A39183",
"[. c #B29587",
"{. c #B3948C",
"}. c #B3998C",
"|. c #B89B8F",
" X c #B8978F",
".X c #AE9393",
"XX c #B49592",
"oX c #BA9593",
"OX c #B69A93",
"+X c #BB9B95",
"@X c #B59A99",
"#X c #BC9D9A",
"$X c #B69798",
"%X c #B5A193",
"&X c #BDA196",
"*X c #BCA295",
"=X c #BEA29C",
"-X c #BFA99C",
";X c #BEA1A1",
":X c #C29D96",
">X c #C29D9B",
",X c #C3A39C",
"<X c #C3A99E",
"1X c #C0A297",
"2X c #C59FA1",
"3X c #C3A4A2",
"4X c #C9A6A4",
"5X c #C6AAA4",
"6X c #CAABA6",
"7X c #C7AAA9",
"8X c #CCACAB",
"9X c #D0AEAC",
"0X c #CAB1A7",
"qX c #CDB2A9",
"wX c #CEB1AB",
"eX c #D0B4AD",
"rX c #D0AFB0",
"tX c #CEB3B1",
"yX c #D2B3B2",
"uX c #D3B9B4",
"iX c #D7BAB9",
/* pixels */
"                          4 a s t z _                                 ",
"                      4 4 4 4 a z a z z f a n                         ",
"                  4 < + + = < 7 r 7 s z v z c c a                     ",
"              r * # O + = * a c n r r 7 5 4 4 5 5 s ]                 ",
"            6 = @ $ # = @ * 4 7 7 7 4 5 q < > < * > < n  .            ",
"            + + o o o o X X + = * 7 7 5 r 4 5 6 < * + + 7             ",
"          @ - ; ; * @ o X X O + O * < < 5 a t t 4 * $ o = *           ",
"        * t ~ ) ~ ~ H d 1 - # = - 1 q t g m S m g f G R g 5           ",
"      6 t 0.A.G.G._._.F.y.&.m y - q f L L L =.t.m.A.%X*X%X].x         ",
"      s m.A.G.!.}.|.1X1X&X[.A.=.M M <.m.G.}.%X-X-X-X-X%X%X}.C.        ",
"    - ( C.A.G.[.[.+X1X<X,X<X&X}.p.e.Z.[.*X5X0XqX0X<X1X%X}._._.^       ",
"    f m.A.G.[.|.|.1X1X1X<X6XqXqX1X[.}.<X0XeX0XqXeX<X1X|.}.[._.t.5     ",
"  = ) N.A.G.[.[.:X1X1X<X<X0XeX0X<X<X<XeXeXeXqXwX0X<X<X*X|.}.[.N.t     ",
"  - <.A.G._.G.[.|.:X1X<X0X0XeXuXuXeXeXeXeXeXqX8XqX<X<X<X*X|.[.A.g #   ",
"  1 m.A.G.[.[.[.|.1X<X<X0XeXuXuXuXuXeXeXuXeXqXqX6X5X1X<X=X*X}.F.H *   ",
"+ s t.N.!.[.}.[.|.1X<X6X6XuXiXuXuXuXeXuXuXyXwX7X3X=X*X&X*XXXXXF.! <   ",
"+ g e.m.G.!.'.'.^..X$X;X7XrXuXtXtXwX8XqXyX8X7X;X@XY.s.[ I [ Q.A.( 4   ",
"= h :.p.:.F W { [ 3.k.XX@X7XtX8XwX8X7X7X7X=X.Xs.U 8 , # @ @ N g.0.q   ",
"* H ) F @ . O X $ > y [ U.#X4X7X7X7X;X=X@X^.W q 2 2 y N W N 9 Y i.a   ",
"  ) ~ - 3 g i y q 3 5 i W K.$X3X3X;X;X$X^.5.Q W Y &.f.!.'.^.k./ m.D   ",
"  <.L g 5.d.y.r.-.J Y Y Q 5.W.#X;X3X;X{.f.7.7.5.-.6.c.G.!.XX{.N.M.(   ",
"  0.~ <.A.D.h.6.4.*.J J $.=.f.^.OX#X#X^.f.5.O.K K &.-.,.r.H.!.Z.N.M.  ",
"  t.&.e.r.z.>.>.6.4.K j j C #.S.#X3X=XE.-.J M M 0.^.!.F.u.>.>.p.C.].  ",
"  m.=.*.*.+.-.r.h.V.k.L u u M y.*X7X3Xv.$.V h C E |  .W F O.+.e.A.'.  ",
"  m.:.K j j h b I.R.I.H h u u &.@XuX5Xf.@.K V F T...` P.| w V >.Z.'.V.",
"  m.<.K h 9 S T.b b ` I.j O.Y O.OXuX7XN.f.h.#.j.} : : 8 s.J K y.].}.].",
"  N.t.&.j h F } . , o j.#.c.F.>.+XyX4X!.XX=X).W.K.8 $ ' d.*.N._.}.OX~.",
"  A.A.t.&.C @.5.U U s.(.OX'.N.u.:X9X4X{.{.;X#XW.l.d.d.d.>.p._.*X%X%X`.",
"  F._.].N.e.*.+.T @.f.{.$X.XZ.u.:X8X6X).}.3X;X#X$XW.h.c.H.^.*X<X-X%X`.",
"  F.'.}.[.G.H.H.D.XX@X;X;XXXz.z.:X8X6XoX{.>X3X#X#X#X@X*X+X#X<X5X<XOX_.",
"  S.[.*X*X[.{.}.oX$X=X3X5X{.u.z.:X9X6XoX}.+X4X5X#X#X=X3X,X,X6X0X<X}.!.",
"  A._.+X1X>X+X#X#X=X7X7X&X!.r.u.:X9X6XoXXXoX3X8X8X7X7X7X3X6X6X6X=X'.Q.",
"  h.!. X>X4X2X4X7X8XwX4X:XH.>.Z.:X6X,XoX(.oX3XeXeXrXyXrXyX9X8X>X+X'.E.",
"  y.Z.{.:X>X2X4X9X8X8X7X+XH.>.J.>X9X4X+X(.{.,X8XrX9XyXyX9X9X>X+X{.!.E.",
"  4.h.W.).:X>X2X8X4X8X4X1XZ.r.J.4XyX4X>X{.!.&X8XiXrXrXrX9X4XoX$X'.E.h.",
"  :.r.v./.(.oX>X2X4X4X,X:Xc.z.).6XiXyX>XoX/.,X9XyXrX9X9X8X>X#XXX^.E.q.",
"  =.4.h.W./.oX>X>X>X>X>XoXu.6.(.,X6X4X:X/.{.#X8XrX9X8X4X3X2X$XXXE.k.  ",
"  E -.4.b.c.!.oX:X>XoX>X X*.P r.J.).).c.*.H.oX8XrX9X4X2X>X#XXXE.E.g.  ",
"  E &.:.y.v.W.(.oXoX).oX{.X.u u -.6.8.j % >.^.rX8X7X4X4X#XoX^.E.k.3.  ",
"  E ~ =.3.f.W.W.(.(.).>X+X+.Z 0 p C $.A +.b.(.8X8X4X4X;X#X$X^.k.d.3.  ",
"  ~ ~ &.;.t.c.D.!.(.oX+X>X8.Z $.V X.6.b.W.8.2X8X8X4X3X#X$X.XE.g.q.q.  ",
"    =.&.=.=.p.k.W.W.(.>X,XXX#.$.#.8.(.$X(.2XrX8X7X4X#X#XXX^.V.g.a.a.  ",
"    ;.;.=.;.q.h.D.~.{.#X,X,X^.8.v.W.>X4X;X4X8X4X4X3X#X.X'.~.k.g.g.q.  ",
"      3.:.=.4.y.h.D.(.+X&X#X}.^.+XoX4X7X#X2X7X4X3X3XoX^.E.U.g.g.B.    ",
"      3.0.=.<.0.y.N.W.XX#X+X^.!.;X2X3X7X$X$X3X3X#X#XXX^.U.C.M.B.B.    ",
"        0.9.3.3.q.p.4.S.'.^.~.E.#X#X2X7X#X.X@X$X$XXX.X~.U.V.B.M.      ",
"        9.0.0.<.0.y.y.g.E.Q.B.^.#X#X#X7X;X.X.X~.~.~.~.Q.U.U.B.B.      ",
"        9.9.0.9.0.y.0.4.g.j.f.~.2X2X3X3X;X$X.XK.j.U.~.U.B.C.j.a.      ",
"          3.0.0.0.w.y.;.0.y.h.W.oX4X8X2XoX$X~.E.U.V.~.Q.U.B.j.        ",
"          9.9.0.3.w.p.0.3.4.-.#.%.2.n.2.2.l.j.d.g.U.~.Y.B.B.B.        ",
"          9.w.0.9.9.i.0.E F i e 0 e k e 0 l T 3.B.Y.~.U.C.C.          ",
"            w.0.0.i.w.0.3.&.B p e % & % p 1.l.k.~.~.~.Y.Y.Y.          ",
"            0.0.w.w.w.i.:.3.Y o.1.k k o.2.l.7.k.`.`.Y.Y.Y.            ",
"            w.9.9.w.i.w.3.-.J A 2.x.x.L.2.1.6.Z.Q.'.Y.Y.Y.            ",
"              0.0.9.9.0.e.3.&.C A o.%.%.o.@.i.V.F.].U.Y.              ",
"              9.9.;.;.q.y.0.=.E C l A Z T 5.p.V.Y.V.M.C.              ",
"                w.( R 9.w.e.3.=.@.J C C E -.g.V.C.M.g.C.              ",
"                  9.G 3.9.0.3.-.&.@.O.=.4.g.E.V.C.M.M.                ",
"                  0.) G ( q.y.0.5.@.@.=.7.V.E.C.q.w.g.                ",
"                    9.D R 3.4.0.3.3.=.=.q.U.V.w.| 9.                  ",
"                      R D ^ / ;./ =.3.q.q.w.w.{ { 9.                  ",
"                        R G I I ~ F W ( ^ { ^ ^                       ",
"                            S D x S S G D I R                         ",
"                              x S S G ! ) ^                           "
};
