/* XPM */
static char *_9b2991432eb4ba9a71b465df4a399c980HFqitDCf3FtpnD[] = {
/* columns rows colors chars-per-pixel */
"39 64 215 2 ",
"   c None",
".  c #0C0906",
"X  c #130E0B",
"o  c #1A0E0A",
"O  c #19130E",
"+  c #16110D",
"@  c #1B1611",
"#  c #1E1914",
"$  c #241C16",
"%  c #251E19",
"&  c #291D19",
"*  c #26211C",
"=  c #2C241D",
"-  c #2B2017",
";  c #32231D",
":  c #31291F",
">  c #2B2521",
",  c #2F2925",
"<  c #332B23",
"1  c #3C2D25",
"2  c #362F29",
"3  c #392F2A",
"4  c #342623",
"5  c #37322A",
"6  c #3B332C",
"7  c #3B3227",
"8  c #3E3531",
"9  c #3F3A33",
"0  c #43251D",
"q  c #422D25",
"w  c #532C2A",
"e  c #44352E",
"r  c #4B352E",
"t  c #44392F",
"y  c #4C3127",
"u  c #543A2E",
"i  c #57362E",
"p  c #443B35",
"a  c #4C3B34",
"s  c #493A36",
"d  c #543C32",
"f  c #5B3E33",
"g  c #573B38",
"h  c #653A39",
"j  c #4B433B",
"k  c #4A4137",
"l  c #54433B",
"z  c #5C433A",
"x  c #5D463A",
"c  c #664136",
"v  c #62443A",
"b  c #664A3C",
"n  c #6D493E",
"m  c #68443B",
"M  c #71473E",
"N  c #75493D",
"B  c #534A43",
"V  c #584C46",
"C  c #5B554B",
"Z  c #674E44",
"A  c #6C4D42",
"S  c #664747",
"D  c #724C43",
"F  c #78494A",
"G  c #625346",
"H  c #6C5146",
"J  c #64544A",
"K  c #6D5449",
"L  c #6B5A4E",
"P  c #745246",
"I  c #74554A",
"U  c #7D554B",
"Y  c #75594D",
"T  c #7B5A4C",
"R  c #6D5C53",
"E  c #695854",
"W  c #7A5C53",
"Q  c #7C5D5A",
"!  c #765550",
"~  c #7C4952",
"^  c #6C625A",
"/  c #7B6255",
"(  c #75645A",
")  c #7D655B",
"_  c #7D6B5D",
"`  c #736455",
"'  c #7C6B62",
"]  c #736161",
"[  c #85584D",
"{  c #824D51",
"}  c #8A4E54",
"|  c #825A51",
" . c #8D535C",
".. c #8E5B5B",
"X. c #865A58",
"o. c #91565B",
"O. c #905C5F",
"+. c #846356",
"@. c #83645A",
"#. c #8B625B",
"$. c #83695C",
"%. c #8B6B5D",
"&. c #8A6054",
"*. c #916D5F",
"=. c #8D5A62",
"-. c #985D68",
";. c #846E62",
":. c #8B6C62",
">. c #89696A",
",. c #936C64",
"<. c #98696A",
"1. c #857366",
"2. c #8B7464",
"3. c #8E7865",
"4. c #84736A",
"5. c #8C756A",
"6. c #8C796A",
"7. c #937264",
"8. c #9A7265",
"9. c #937B66",
"0. c #937669",
"q. c #99746A",
"w. c #947B6C",
"e. c #9A7B6D",
"r. c #9B7966",
"t. c #9E6A70",
"y. c #8D7B72",
"u. c #8C7270",
"i. c #937671",
"p. c #947D74",
"a. c #9C7D72",
"s. c #9A7E79",
"d. c #977B77",
"f. c #A2646F",
"g. c #A17D6E",
"h. c #A0776E",
"j. c #A76A76",
"k. c #A56774",
"l. c #A27C72",
"z. c #A77C7A",
"x. c #95806F",
"c. c #99806E",
"v. c #958175",
"b. c #9C8374",
"n. c #95837A",
"m. c #9C857B",
"M. c #9D8A7D",
"N. c #998876",
"B. c #A28374",
"V. c #A18876",
"C. c #A2857A",
"Z. c #A48A7D",
"A. c #AB897D",
"S. c #A8847A",
"D. c #B37B87",
"F. c #9C8782",
"G. c #9C8A82",
"H. c #A38680",
"J. c #A58C83",
"K. c #AB8D83",
"L. c #AB8E89",
"P. c #A18D8A",
"I. c #B08D87",
"U. c #B4878B",
"Y. c #A69082",
"T. c #AB9285",
"R. c #A5928A",
"E. c #AD948B",
"W. c #AD988D",
"Q. c #B29287",
"!. c #B3948C",
"~. c #B8968F",
"^. c #B3998D",
"/. c #AD9790",
"(. c #AE9B94",
"). c #B49691",
"_. c #BA9592",
"`. c #B59C92",
"'. c #BB9C95",
"]. c #B39E9A",
"[. c #BD9E99",
"{. c #B4A196",
"}. c #BBA296",
"|. c #B5A29C",
" X c #BCA39B",
".X c #BEA99F",
"XX c #BBA6A1",
"oX c #BDA9A3",
"OX c #C19E96",
"+X c #C29E9B",
"@X c #C2A49D",
"#X c #C3A89E",
"$X c #C8A19E",
"%X c #C4A5A2",
"&X c #C9A5A3",
"*X c #C5ABA4",
"=X c #CAABA6",
"-X c #C5ADA8",
";X c #CCADAA",
":X c #C5B1AB",
">X c #CDB2AC",
",X c #C8B0A7",
"<X c #D0B2AE",
"1X c #CFB9B2",
"2X c #CBB4B1",
"3X c #D1B5B1",
"4X c #D2B9B2",
"5X c #D5BDB6",
"6X c #D4BBB4",
"7X c #D5BFB8",
"8X c #D6BEB8",
"9X c #D8BFB9",
"0X c #D7C0BA",
"qX c #D9C2BD",
"wX c #DDC1C0",
/* pixels */
"                              5 9 B j V V ^ C                                 ",
"                          % # * 9 9 9 k j B B B C                             ",
"                      * # * $ 5 B B B p 5 9 5 5 5 p B                         ",
"                  $ O # * # * = 9 9 9 5 5 5 5 , < , * 6                       ",
"                $ @ @ O @ X X @ * > , 9 6 6 5 6 6 7 , = >                     ",
"              $ # + O O + X X . + @ $ < > 2 t B j k e % $ $                   ",
"              * - : q 7 1 & * $ $ $ < e p e t l x a t 1 : = &                 ",
"            = x / $.:.5.2./ K x a e 1 p Z / Y K Y ) @.) ) R a >               ",
"          : G N.Y.^.^.}. X{.T.m.x.$.H / $.a.Z.T.Y.Y.W.W.{.{.W.x.B             ",
"        9 L V.T.^.{.#X#X,X=X,X*X}.W.w.w.Z.`.{.oX-X,X*X*XoX.X{.^.R.            ",
"        k N.Z.^.`.}.@X#X,X>X>X1X1X2X}.Q.`.:X0X0X0X0X1X,X*X X}.{./.4.          ",
"      5 ' Z.Z.W.^.}.@X#X,X>X1X4X0X6X#X#X%X0X0X0X0X1X1X,X#X{.{.{.W.M.B         ",
"      C N.T.W.^.^.^.@X#X=X=X4X4X0X4X4X4X4X6X9X4X1X4X>X,X#X}.}.}.^.Z.L         ",
"    6 ` V.Z.^.^.^.}.@X#X=X>X>X5X5X6X4X<X<X6X6X9X4X4X4X,X#X}.}.}.`.J.) 6       ",
"    7 _ V.W.^.^.^.OX@X#X=X=X4X6X0X5X4X4X4X4X4X6X6X<X>X,X#X.X X X'.T.;.6       ",
"    7 x.V.^.}.}.^.}.#X#X#X>X4X4X5X5X5X4X<X4X5X9X4X<X>X,X,X#X#X X^.T.5.a <     ",
"  * y 3.N.^.{.}.}.}.#X#X*X>X4X5X9X5X7X4X4X5X9X6X3X3X<X>X-X%X#X}.^.E.s.l 7     ",
"  : k 3.V.A.^.}. X}. X#X,X,X4X5XqX0X7X9X4X5X5X3X3X3X<X;X,X-X%X X`.K.b.J 8     ",
"  : G x.V.A.^.}..X.X%X X#X-X>X5XqX9X4X1X3X3X3X3X3X<X<X-X-X-X-X@X'.K.b.' t     ",
"  < _ x.V.A.{.}. X%X%X%X#X%X:X2X4X4X2X>X;X;X&X-X-X-X-X-X-XoXoX X'.T.m.w.k     ",
"  7 2.9.V.Z.{.}.].]. XXXXXXX X%X-X-X-X*XoX%X X X X|.(.P.F.D.d.y.F.L.m.v.V     ",
"  l 3.3.N._ L ` ' ] ' ' d.J.J.).'. X@X@X[.`.R.D.>.E B 2 > 8 9 8 6 E p.v.`     ",
"  G 3.1.k - = : & @ @ $ & r W i.K.`.@X X'.K.5.K r ; & $ # > s g e e ` b.'     ",
"  ` 3.H r k x l r e 1 4 q r f I e.Q. X@X`.s.| A x f f Z ( ' ;.@.@.Q Q v.y.    ",
"  3.3.J n T / $.2.%./ K v f v A 7.T.@X#X`.e.U n v b I +.6.w.a.7.%.@.%.w.F.    ",
"  x.2.I I N T T / 2.p./ f u u f +.K.#X,X'.r.D v z u A 3.H.i.@.W I W $.w.J.    ",
"  x.2.Y b k v T P K R l r r f u T A.;X<X'.7.T n i r s O > $ r z v I %.b.J.G.  ",
"  c.c.T v c : : 7 . . X g g f ) T A.>X4X}.7.c.%.D Q ] o . X B e d I 9.C.E.J.  ",
"  c.c.9.T b r l G 4 o 6 u.i.0.V.%.Q.;X4X$Xc.Q.^._.H.J.' V ^ Q P %.c.Z.Q.W.J.  ",
"  b.A.V.c.*.[ P Q Q >.d.a.L.E.V.7.^.=X;X$XA.Q.{.'.S.q.X.W ~ X.7.c.Q.{.^.W.R.  ",
"  V.T.T.A.V.c.9.*.,.a.L.).[.).C.r.~.=X;X'.Q.Q.@X@X[.`.!.L.C.C.C.A..X}.{.^.Y.  ",
"w.V.T.^.^.^.A.Q.Q.).'.XX%X-X`.B.g._.>X>X@XA.Q.@X#X X[.'.'.'.`.'.}.#X%X}.^.J.  ",
"w.b.A.^.'.}._.[.[.].%X&X;X#XQ.B.g.OX=X<X@X!.Q.`.%X&X%X%X%X%X[.+X#X#X#X@XQ.Z.w.",
"e.b.Z.!.'.$X&X&X&X=X;X<X=X$XA.c.B.OX=X=XOXQ.^.~.@X=X;X-X<X&X-X;X,X#X@X'.Q.Z.i.",
"m.w.Z.!.'.$X$X$X<X;X<X=X#XOXS.r.S.OX=X&XOX!.Q.~.@X;X;X$X<X<X<X<X;X$XOX^.E.C.s.",
"C.w.S.I.!.'.+X&X;X;X<X=X;XOXB.g.A.OX;X#XOX!.Q.Q.'.=X<X<X<X<X<X;X=X$X'.^.L.C.F.",
"2.0.s.K.!._.+X$X$X;X<X<X=X'.g.B.Q.$XwX<X#X~.!.A.'.=X<X<X<X<X<X&X$X+X_./.J.s.d.",
"  :.a.K.L.U.+X+X$X&X&X&X&X'.l.g.OX$X4X<X$X~.!.!.'.,X<X<X<X;X;X&X+X+X].!.J.d.u.",
"  ;.0.b.L.U._._.+X&X&X&X#XA.8.&.h.Q.OXOXQ.l.S.Q.~.;X<X;X;X&X%XXX%X[.).E.J.u.d.",
"2.%.0.a.L.U._._.+X$X&X$X'.g.[ c [ h.l.g.,.D P 8.z.;X;X;X;X&X%X+XXX_.L.L.H.1.p.",
"6.$.0.a.Z.Q.!._._.OXOX[.[.B.N w 0 M U [ F m i [ a.*X;X-X=X&X%X+X[.].U.P.m.;.i.",
"  @.9.a.C.K.!.U.~._._.+X@XK.M M N h D | #.#...[ z.-X;X;X&X%X%X+X[.).L.L.n.)   ",
"  $.2.w.q.K.L.!.!.!.'.@X#X~.*.D N +.#.q.a.q.8.S.[.;X<X;X;X%X+X X[.].L.L.d.'   ",
"  $.2.e.m.J.Q.L.I.~.}.#X#X@X!.e.@.w.0.a././.).%X;X<X<X;X&XXX[._.'.).U.P.p.4.  ",
"  $.2.0.b.Z.K.L.Q.Q.'.@X#X#X{.L.M./.H.L.XXXX).XX:X2X2X;X*X%X[.!.).).L.H.d.    ",
"    2.7.s.A.Z.A.K.S.B.`.}.{.(.W.].-X].).XXoXXX|.oXoX-X-X%X%X'.'.).L.L.F.y.    ",
"    1.9.b.s.C.K.T.T.E.(.|.|.W.W.|.:XoX].XX:XXX].|.].|.].'. X].`.L.L.L.F.y.    ",
"    :.2.w.w.B.Z.T.J.J.R.W.W.T.W.W.*X2X-X*XXX|.XXXX]./.R.E./.`.).!.L.P.m.p.    ",
"      2.w.w.C.Z.J.J.Z.v.b.C.a.,.=.<.j.U.z.f.z.J./.P.J.G.T.T.].).J.L.G.n.      ",
"      2.5.9.b.Z.Z.K.b.$.Z g w w w h ~ o.~ F h h F ! I ) b.J.).).H.m.m.d.      ",
"        2.2.6.M.Z.V.9.%.7.X.{ =.=.-.-.{  .-. .=.=.Q :.@.7.Z.T.W.J.F.d.v.      ",
"        1.;.@.3.b.b.J.^.L.q.=. .t.D.U.D.D.U.D.j.t.z.K.^.Z.C.J.J.m.n.v.        ",
"          1.$.3.x.b.b.T.J.b.,. .o.-.f.f.j.j.f.<.<.s.K.^.!.T.Z.m.d.p.6.        ",
"          1.2.2.3.w.$.b.V.V.7.W F } } o.o.o.o.#.7.A.E.Y.Y.Z.m.b.v.y.          ",
"            2.6.6.1.3.w.c.c.b.7.W P M m h A T %.s.Z.A.V.Z.b.w.v.n.v.          ",
"              1.3._ 3.9.c.c.b.b.q.0.,.,.,.%.:.w.B.b.b.b.C.m.v.n.v.            ",
"                _ _ 3.N.b.b.V.W.(./.W.W.).E./.(.W.T.Y.Y.J.M.m.v.              ",
"                  ) 4.N.Y.W.{. XoXoXoXoXoX:X2XoX.X{.{.(.R.M.v.                ",
"                    6.v.R.W.{.|.XXXXoXoXoX:XoXoX|.{.(.W.M.y.6.                ",
"                      1.v.M.R.{.(.].XX|.XXXXoXXX(./.P.n.n.                    ",
"                        ' 6.y.G.R./.(.R.(./././.R.G.y.'                       ",
"                          ( 1.6.n.N.G.n.G.n.F.n.n.' 4.                        ",
"                              R _ 4._ ' ' ' ' ' ^ (                           ",
"                                    J G ^ J C J                               "
};
