/* XPM */
static char *_727009fcce74bfcf2d3c7250f8783713EnqnphdDeiy6sDc[] = {
/* columns rows colors chars-per-pixel */
"39 64 221 2 ",
"   c None",
".  c #0D0A08",
"X  c #150D0B",
"o  c #16110E",
"O  c #1C150F",
"+  c #1B1511",
"@  c #1F1915",
"#  c #221A14",
"$  c #231D19",
"%  c #281F1A",
"&  c #251613",
"*  c #26211B",
"=  c #2A231D",
"-  c #282117",
";  c #32291F",
":  c #38251E",
">  c #2D2721",
",  c #2E2A23",
"<  c #342622",
"1  c #322C25",
"2  c #3C2B24",
"3  c #342E29",
"4  c #3A2E2A",
"5  c #36312B",
"6  c #3B332B",
"7  c #393127",
"8  c #3B3731",
"9  c #3E3933",
"0  c #452C23",
"q  c #462E27",
"w  c #43342B",
"e  c #4D342A",
"r  c #44392E",
"t  c #55362D",
"y  c #443C35",
"u  c #4B3C35",
"i  c #433E38",
"p  c #4A3A39",
"a  c #4D3630",
"s  c #543D35",
"d  c #5A3B35",
"f  c #583A38",
"g  c #522D25",
"h  c #603C38",
"j  c #46413A",
"k  c #4A433C",
"l  c #4A443B",
"z  c #52443C",
"x  c #5C453C",
"c  c #5C493F",
"v  c #55493D",
"b  c #61433B",
"n  c #6A473E",
"m  c #6D3F42",
"M  c #753B45",
"N  c #4F4941",
"B  c #534C43",
"V  c #5A4A45",
"C  c #5D514B",
"Z  c #56534B",
"A  c #6B4B42",
"S  c #654B44",
"D  c #744C44",
"F  c #744F4B",
"G  c #7B4A48",
"H  c #6D5146",
"J  c #63554C",
"K  c #6B534B",
"L  c #67574B",
"P  c #705245",
"I  c #74554B",
"U  c #7B534B",
"Y  c #74584D",
"T  c #7B5A4E",
"R  c #7B5146",
"E  c #7C4A54",
"W  c #6E5E52",
"Q  c #665655",
"!  c #745D52",
"~  c #7C5B52",
"^  c #725551",
"/  c #736354",
"(  c #7A6256",
")  c #7B655B",
"_  c #7B6A5A",
"`  c #77675B",
"'  c #67635B",
"]  c #5F5F69",
"[  c #625E66",
"{  c #7E6762",
"}  c #7F6B65",
"|  c #80584E",
" . c #814A55",
".. c #824C58",
"X. c #835C53",
"o. c #8A5D54",
"O. c #8C535A",
"+. c #865658",
"@. c #93565B",
"#. c #846456",
"$. c #82635A",
"%. c #8B645C",
"&. c #846B5D",
"*. c #8C6A5D",
"=. c #8C6357",
"-. c #92685C",
";. c #8C705C",
":. c #825F60",
">. c #9A5C68",
",. c #856462",
"<. c #846B62",
"1. c #8C6D62",
"2. c #896A66",
"3. c #926C63",
"4. c #996A63",
"5. c #956766",
"6. c #8B7364",
"7. c #85746A",
"8. c #8B756A",
"9. c #8D7A6C",
"0. c #897566",
"q. c #937265",
"w. c #93746A",
"e. c #9A746B",
"r. c #947B6C",
"t. c #9C796C",
"y. c #987465",
"u. c #9F6E72",
"i. c #8C7C71",
"p. c #89787A",
"a. c #947D73",
"s. c #9B7D73",
"d. c #9B7E79",
"f. c #9B7573",
"g. c #A0626D",
"h. c #A17D6F",
"j. c #AA6C7C",
"k. c #A36775",
"l. c #A37D74",
"z. c #A27D7A",
"x. c #96806D",
"c. c #99836F",
"v. c #958375",
"b. c #9B8374",
"n. c #96827A",
"m. c #9B857B",
"M. c #9D897C",
"N. c #A28475",
"B. c #A88177",
"V. c #A3857B",
"C. c #AA837F",
"Z. c #A48A7D",
"A. c #A88A7E",
"S. c #A18874",
"D. c #B0887F",
"F. c #AD7982",
"G. c #B37888",
"H. c #9D8781",
"J. c #9E8B84",
"K. c #9B8986",
"L. c #8F8D95",
"P. c #A38784",
"I. c #AD8683",
"U. c #A48C83",
"Y. c #AB8D84",
"T. c #AB8E89",
"R. c #A28F88",
"E. c #B18C86",
"W. c #B28E89",
"Q. c #B08783",
"!. c #A39185",
"~. c #AC9285",
"^. c #A5928B",
"/. c #AC948B",
"(. c #AD998D",
"). c #B3948C",
"_. c #B9938E",
"`. c #B39A8D",
"'. c #B5948A",
"]. c #B98694",
"[. c #AA9591",
"{. c #AE9B94",
"}. c #AF9B98",
"|. c #B49692",
" X c #BA9592",
".X c #B49B93",
"XX c #BB9B94",
"oX c #B49E99",
"OX c #BC9D99",
"+X c #B6A195",
"@X c #BAA295",
"#X c #B5A19B",
"$X c #BCA39B",
"%X c #BEA99E",
"&X c #BCA6A2",
"*X c #BDA9A4",
"=X c #B7A3A0",
"-X c #C29C9B",
";X c #C39C98",
":X c #C08C9A",
">X c #C3A39D",
",X c #C2A99E",
"<X c #C9A49F",
"1X c #C5A4A2",
"2X c #CAA5A4",
"3X c #C4ABA3",
"4X c #CAABA5",
"5X c #CFA7A8",
"6X c #C5ADA9",
"7X c #CCADAA",
"8X c #D1AEAC",
"9X c #C9B1A7",
"0X c #C6B1AC",
"qX c #CDB3AD",
"wX c #D1B2AE",
"eX c #CCB5B1",
"rX c #CFB8B0",
"tX c #D3B4B2",
"yX c #D1B9B3",
"uX c #D8BDBB",
"iX c #DDC1C0",
/* pixels */
"                            3 l N i i ' B Z                                   ",
"                        , , 5 5 3 N N N B i j j B                             ",
"                    5 , * o o > N N i i B Z B Q Z N l                         ",
"                5 > @ + @ @ $ 8 i 8 5 9 i 6 1 5 j 9 9 j                       ",
"              Z * o o o @ + * 8 9 8 N 5 3 i 3 3 3 > * 3 8 j                   ",
"            l - O + @ $ @ @ * 3 8 i 8 8 8 7 3 1 , * = * + $ j k               ",
"          = @ # @ O + @ o o o o $ @ 8 9 6 6 y 6 y 6 % $ + + $ 3               ",
"        3 * ; r r w 2 = @ @ o o X + = 1 4 y B z u u u 2 6 2 % @ *             ",
"        , 7 W ;.&.&.) Y c 7 : - - = 7 u u v K Y / / W x.M.M.v.x.k             ",
"      5 7 / x.Z.Z.~.Y.U.m.1.Y x r : w c ( ( / 0.c.M.M.+X%X+X+X`.^.l           ",
"      7 W M.Z.`.`.`.%X%X@X.XU.r.! x n &.r.Z..X+X%X9X9X%X%X+X+X`.(.7.y         ",
"      9 c.Z.`.A.`.`.$X,X3X3X%X.XZ.;.;.c.~.#X3XrXrX9X9X%X+X+X`.`.~.m.k 6       ",
"    6 _ S.A.A.`.`.`.>X,X3X,X9X9X,XA.A.`.9XqXrXrXrXrX9X@X@X@X`.`.(.b.J 1       ",
"    8 x.S.Z.~.(.`.@X,X,X3X4X9XqX9X,X,X,X9XrXrXqXrX9X9X,X$X@X@X+X`.Z.Y ; *     ",
"  - v c.A.(.A.~.`.XX>X,X4X9XqXrXrX9X9XqXrXyXrXwXqX9X,X,X%X%X@XXX'.!._ 2 *     ",
"  - L c.A.`.`.~.D.`.>X,X3X9XqXrXyXrXqXqXqXyXrXwX9X9X9X,X9X9X,X$X`.A.6.l ;     ",
"  = / c.Z.`.`.`.~.'.@X,X4X9XqXyXyXqXqXqXrXyXeX7X7X6X6X6X6X6X$X$X`.~.x.V 6     ",
"  ; / x.Z.`.(.`.'./..X,X4XwXeXyXyXqXqXqXqXrX6X0X0X6X&XoX^.F.p.H./.U.b./ 6     ",
"  7 ;.x.S.`.(.`..X~.Y.%X9X7XeXuXyXyXqX9X6X6X%XoX[.K.} C 9 4 > w 8.m.b.0.j     ",
"  j x.x.S.A.`.+X%X+X/..X6X6XqXyXuXyX0X3X%X.XP.,.z < * $ @ 8 p < w ) r.v.k     ",
"  v 0.x.c.A.(.%X&X&X#X#X6X6X3X6XqX6X3X1XOXP.2.Q V p f K $.d.P.m.,.Y s.v.B     ",
"  L x.x.S.!.M.^.}.oX{.[.{.=X.XXX$X#X1X%X|.w.2.,.~ T X.q.V.Y./..X/.s.r.M.L     ",
"  _ r.x.#.u 6 y C Q J N S { 6.z.Y.OX6X*XT.w.3.o.X.X.%.q.e.t.B.W.Y.Z.v.M.`     ",
"    0.( s w w 7 > + o X & 4 x Y r..X1X$XV.,.X.U | %.N.A.A.z.-.4.t.b.v.U.i.    ",
"    0.Y P I I K c u q 0 0 0 e b w.W.%XXXw.U U U o.d.XX.X.XY.z.=.%.q.b.!.!.    ",
"    &.T Y ( &.&.#.~ A s t 0 0 t %.~.1X.X%.X.X.X.%.3.2.8.<.,.~ T | *.b.Z.!.    ",
"  r.&.Y n P I T ~ ,.~ Q t : 0 t #.`.9X.Xw.2.-.o.G K F.L.[ . X 0 P *.b.~./.    ",
"  c.;.T x x n P H Q p + . & z S e.3XqXXXZ..XY.4.@.i.L.L.[ . 2 ! -.b.~.`.`.m.  ",
"  b.x.;.n e : w p Q Q C V ^ <.#.Z.7XtX>XY.XX3X>XC.Q.P.P.F.Z ^ e.A.`.+X+X.XJ.  ",
"  S.A.S.;.#.P R F X.,.1.f.P.Z.-.).4X8X>X'..X3X$XW.l.e.o.+.! 3.A.`.$X%X`..XU.  ",
"b.Z.~.~.S.x.;.;.q.s.I.T.|..XZ.y.W.7XwX>X_.`.1X6XOXXX)./.T.Y./..X,X9X%X@X.XU.  ",
"r.Z.'.`.`.D.D.`.|.XXXXOX1XXXZ.t._.7X8X>X|._.>X4X1XOXXXOXOX$X$X>X4X9X3X@X).V.  ",
"r.S.'.XXXX;X-X-X-X,X1X4X<XXXh.h.;X8X8X,X_._.@X<X7X7X2X2X6X1X&X1X4X9X,X$X).z.  ",
"r.N.~.XX;X<X2X5X5X7XwX7X>XXXh.h._.8X8X;X`._.XX>XqX8XeXtXtXwX8X8X9X<XOXXX/.d.P.",
"q.b.Q._.;X;X2X5X8XwX8X8X<X`.y.B.;X4X<X<XXX'.XX>X7XwX8X8XtXtXtX8X4X>XXX|.T.d./.",
"1.s.Y.'._.;X<X5X8X8XwXuX9XXXy.D.<X8X4X>X_.W.'.>X7XtXuXtXtXtXtX5X<X;XOX_.T.d.T.",
"6.r.P.W. X:X-X2X5X8XtXuX8X_.h.'.<XiX4X<X X_.E.>X7XtXtXtXtXtX8X5X1XOXOXT.P.f.i.",
"_ r.N.I.Q. X-X2X2X5XtXtX,XA.B.XXqXiXwX<XXX_._.XXtXtXtXtX8X8X5X1X1XOXOXT.U.2.  ",
"$.8.s.V.I._.;X-X1X2X5X2X_.y.4.W.-X4X<XXXI.W. X XtXtXtXtX8X6X2X2X-X-X|.T.H.<.T.",
"  1.t.V.I._. X:X<X1X1X&XE.o.R 4.C.Q.Q.h.X.4.z.I.8XwX8X8X7X5X1X1XOX XI.T.d.} P.",
"  1.r.N.I.'.|. X-XOX-X>X_.R g d =.=.1.U f t @.l.7XtX7X8X7X2X1X1XOX|.T.T.i.{   ",
"  &.r.b.I./.W. XXX X-X3XOXU A n h D o.,.5.4.o.C.7XtX7X7X2X1X1X-XOX].T.P.8.{   ",
"  &.r.e.I.Y.W.W._.XX>X4X,Xt.R D ~ X.e.z.l.u.C.>XyXtXtX7X6X1X-X&XOX|.T.V.7.    ",
"  6.6.v.V.Y.T.W._.XX,X4X4X_.q.X.3.w.z..X|.oX4XtXyXtXtXeX6X1X-XOX X|.T.m.8.    ",
"    6.s.N.U.T.Y.~.XX,X3X,X@XP.f.K.F.[.*X*X#X1XeXtXtXyX7X4X1XXX X|.|.R.m.8.    ",
"    6.c.Z.V.A.Y.B.l.XX%XOX{./.{.*XoX|.1X6X&X&X6X6X7X7X7X3X-XoX|.|.T.P.d.i.    ",
"    6.r.v.V.A.Y.Y.U.{.#X+X^.{.$X0X&XoX&XeX*X=X&X=X&X&X&X1X$XOX|.|.T.P.d.      ",
"      r.r.B.U.Y.Z.m.!.^.(./.|.oX7XeX7X6X0X6X*X&X=X}.[.[.oXOXoX|.[.T.H.n.      ",
"      r.r.V.Y.Y.V.b.9.v.V.z.e.5.F._.-X].F.I..XOXoX[.^.[./..XoX|.T.P.H.a.      ",
"      0.6.v.Y.~.M.r.Y n S f h m G O.>.>.+.E ..:.2.,.2.d.^..XoXT.P.H.n.a.      ",
"        0.0.b.A.b.w.r.w.+.E ........M ....E  ...E :.X.2.U./.|./.P.n.n.        ",
"        0.#.w.M.Z.~.`.~.r.@.@.j.].:XG.G.:X].F.k.F.Y..X~.U.U./.J.H.n.i.        ",
"          6.9.v.V.r.~.~.m.1.+.>.g.k.j.F.j.j.u.u.m.~.`..X/.!.J.v.v.a.i.        ",
"            8.r.b.x.M.Y.Z.e.|  .O.>.>.>.>.>.5.q.V.~././.~.!.M.M.v.i.          ",
"            9.9.9.x.c.b.b.N.q.X.D A A A U | *.b.~./.U.Z.Z.b.m.n.n.v.          ",
"              0.<.9.c.b.b.c.b.q.3.5.o.o.=.%.q.M.b.N.b.V.Z.m.n.M.n.            ",
"                &.9.b.S.S.S.~.~.I.U.Y./.T.I.(.~.A.!.!.M.!.M.M.v.              ",
"                  7.M.^.(.+X@X&X*X3X*X3X0X0XeX*X%X+X{.(.J.M.n.                ",
"                  9.v.!.{.+X*X*X*X*X*X*XeXeX0X*X#X#X{.J.v.x.                  ",
"                    7.v.H.^.#X.X#X*X#X=X*X*X=X#X+X^.K.K.7.                    ",
"                      7.9.v.J.^.}.#X{.}.{.#X{.[.J.K.i.}                       ",
"                        ` 7.i.n.n.J.M.R.R.R.K.M.v.}                           ",
"                          / / 7.i.7.7.i.7.7.v.'                               ",
"                                J L L W L J                                   "
};
