/* XPM */
static char *ad077535273d4510874aae9087dbb320QIAnD1nFQF0EBaML[] = {
/* columns rows colors chars-per-pixel */
"38 64 222 2 ",
"   c None",
".  c #090706",
"X  c #110C09",
"o  c #1B130F",
"O  c #16120E",
"+  c #1C1611",
"@  c #1E1914",
"#  c #231C15",
"$  c #2B1C16",
"%  c #251F19",
"&  c #251B17",
"*  c #351D18",
"=  c #2B231D",
"-  c #27201A",
";  c #32281E",
":  c #3B221A",
">  c #2E2923",
",  c #332622",
"<  c #322B24",
"1  c #3B2D25",
"2  c #352E28",
"3  c #392B25",
"4  c #36312B",
"5  c #3A332C",
"6  c #3E3832",
"7  c #3D3730",
"8  c #40261D",
"9  c #442C22",
"0  c #482F28",
"q  c #542E2D",
"w  c #42352C",
"e  c #4A322A",
"r  c #493025",
"t  c #55392F",
"y  c #523429",
"u  c #4A3734",
"i  c #433C34",
"p  c #4B3E35",
"a  c #483D37",
"s  c #543A32",
"d  c #5B3D35",
"f  c #583A37",
"g  c #633E36",
"h  c #633338",
"j  c #4C4034",
"k  c #4B443C",
"l  c #4E483E",
"z  c #46423C",
"x  c #5A443B",
"c  c #5B493E",
"v  c #564238",
"b  c #63433B",
"n  c #68483C",
"m  c #403C41",
"M  c #6C3D42",
"N  c #733F44",
"B  c #4F4942",
"V  c #5C4341",
"C  c #534B43",
"Z  c #5B4B43",
"A  c #5E5046",
"S  c #5B544A",
"D  c #565046",
"F  c #5C5558",
"G  c #534C50",
"H  c #634C41",
"J  c #6C4C43",
"K  c #674947",
"L  c #754B44",
"P  c #7C4C4A",
"I  c #734D4E",
"U  c #655449",
"Y  c #6D5249",
"T  c #6A5B4C",
"R  c #74534C",
"E  c #7A544B",
"W  c #755B4E",
"Q  c #7D5B4D",
"!  c #795146",
"~  c #6D5B55",
"^  c #7C5B52",
"/  c #775B56",
"(  c #766453",
")  c #7C6355",
"_  c #73645B",
"`  c #7B675B",
"'  c #7D6A5C",
"]  c #6E6057",
"[  c #5B5A61",
"{  c #795E61",
"}  c #7D6D63",
"|  c #7B7379",
" . c #6A6973",
".. c #834E53",
"X. c #845D54",
"o. c #865657",
"O. c #91545D",
"+. c #826355",
"@. c #84645A",
"#. c #8B645C",
"$. c #856B5C",
"%. c #8C6B5D",
"&. c #8B6456",
"*. c #92655D",
"=. c #946C5F",
"-. c #86705E",
";. c #8B705F",
":. c #90715E",
">. c #975A65",
",. c #856761",
"<. c #836D62",
"1. c #8E6C62",
"2. c #896261",
"3. c #956B63",
"4. c #986E64",
"5. c #9B6B6B",
"6. c #9A6468",
"7. c #857364",
"8. c #8B7363",
"9. c #8A7867",
"0. c #84756B",
"q. c #8C746A",
"w. c #8D7A6A",
"e. c #927465",
"r. c #93746A",
"t. c #9C756B",
"y. c #947B6B",
"u. c #9A7C6C",
"i. c #9A7467",
"p. c #976671",
"a. c #8D7D72",
"s. c #8D7673",
"d. c #967C75",
"f. c #9A7D72",
"g. c #9B7D7B",
"h. c #997676",
"j. c #A17A6F",
"k. c #A66D79",
"l. c #A56C77",
"z. c #A37D73",
"x. c #A57979",
"c. c #A1636E",
"v. c #9B816F",
"b. c #96816D",
"n. c #948174",
"m. c #9C8374",
"M. c #94837A",
"N. c #9C857B",
"B. c #9C897D",
"V. c #9F8875",
"C. c #A38375",
"Z. c #A28975",
"A. c #A3857B",
"S. c #AB867E",
"D. c #A38A7C",
"F. c #AA8C7D",
"G. c #A88277",
"H. c #AD7684",
"J. c #A57F80",
"K. c #B17A86",
"L. c #9E8684",
"P. c #9C8A83",
"I. c #969297",
"U. c #8E8687",
"Y. c #A28484",
"T. c #AB8681",
"R. c #A48C83",
"E. c #AB8C84",
"W. c #A78E88",
"Q. c #AC8E89",
"!. c #B18B82",
"~. c #B18E89",
"^. c #B28386",
"/. c #A69084",
"(. c #AC9284",
"). c #A6938B",
"_. c #AC938C",
"`. c #AD998E",
"'. c #B19486",
"]. c #B3938C",
"[. c #B8938D",
"{. c #B49A8D",
"}. c #B89A8F",
"|. c #AB9690",
" X c #AD9A93",
".X c #A79A9D",
"XX c #B49591",
"oX c #BA9692",
"OX c #B59B94",
"+X c #BA9C94",
"@X c #B39F99",
"#X c #BC9E99",
"$X c #BCA195",
"%X c #B5A29B",
"&X c #BCA39C",
"*X c #BBA69A",
"=X c #A8A3A9",
"-X c #BBA6A1",
";X c #BDAAA4",
":X c #BAA8A3",
">X c #C29E9A",
",X c #C19B96",
"<X c #C2A39C",
"1X c #C8A39E",
"2X c #C5A99D",
"3X c #C1A197",
"4X c #C4A5A2",
"5X c #CAA4A3",
"6X c #C5AAA3",
"7X c #CAABA6",
"8X c #C4AEAA",
"9X c #CCADAB",
"0X c #D1AFAD",
"qX c #CBB0A7",
"wX c #C6B2AD",
"eX c #CEB2AC",
"rX c #D1B3AD",
"tX c #CBB2B0",
"yX c #D2B4B2",
"uX c #D2B8B2",
"iX c #D7BABB",
"pX c #E2C6C5",
/* pixels */
"                                z l l k D                                   ",
"                          5 i z i z D S l k z C                             ",
"                      2 < @ + 2 B z k B l C D S D B                         ",
"                  = - O @ @ - > 4 6 6 6 c z i k z i 6 a                     ",
"              < - + + O @ @ 5 B B 5 z 7 6 7 < 2 < < > 4 4 B                 ",
"            < # O + @ - @ - = 2 4 z 6 4 4 2 2 > - > > % @ > 6               ",
"          = @ % @ @ + + O O @ 4 4 5 6 6 5 5 4 5 2 > % @ + @ >               ",
"        % % ; 9 1 ; - # @ + O X X @ = 2 1 i i j a w 1 1 1 < , %             ",
"        ; j ( ' Q T n p 1 = # - - - ; 5 w v H H x v T ' n.M.n.b.7           ",
"      5 j -.v.Z.V.v.m.y.+.J t 1 1 1 5 c n c ) #.8.w.V.`.*X%X`.`.}           ",
"      j b.V.F.F.'.{.}.}.(.N.8.W v r c ) 9.u.y.N._.OX*X*X*X*X$X`.B.l         ",
"    = ( V.Z.F.{.'.{.$X3X<X$X'.D.$.W -.v.Z./.@X*X6XqX2X*X$X$X{.`.R.~         ",
"    j b.Z.Z.F.F.F.{.$X3X<X2X2X*XF.b.e.F.$XqXrXrXeXqX6X*X}.}.}.{./.` 4       ",
"  = T b.Z.F.F.F.$X$X3X2X2X2XqXrXqXF.F.2XqXeXuXrXuXeX2X3X$X}.$X}.(.$.w       ",
"  - ' V.F.F.F.{.{.$X3X2X2XqXrXeXqX2X2XqXeXrXrXeXrXeX2X$X}.$X$X}.(.r.j =     ",
"  ; -.V.F.F.F.F.F.}.3X*XqXqXeXuXuXqXqXqXrXeXrXrXqXqX$X$X3X$X$X}._.n.Z <     ",
"@ w ;.v.F.F.F.F.'.[.$X3X6XqXeXyXeXqXqX7XeXrXrXrX0X6X#X<X<X$X$X{.(.N.U 7     ",
"# j :.v.Z.F.'.'.S.F.}.2X2X9XeXyXqXqXqX7XrXqX7X0X9X-X4X<X<X&X+X[.(.A.$.i     ",
"= v :.v.C.(.$X$XOXE.].&X2X7XeXuXeXqXqX7XeX9X6X7X4X4X4X9X6X<X+X{.Q.A.n.c     ",
"; T -.9.v.F.`.}.&X@XOX#X<X4XeXuXuXqX6X6X4X4X5X7X4X4XtX9X6X<X+XXXQ.D.A.~     ",
"; ( ;.;.$.Y Y s.Y.W._.@X-X#X#X6X6X<X&XoXOX-X9XwX8X;X;X#XOXW.R.|.(.R.N.<.    ",
"  $.7.W = + % , w p V / h.N.T.XXOX+XOX].x.C.g.d.s.} { F Z p u V ,.N.N.d.    ",
"  -.8.x s x s , + + o & u I 2.A.oX<XOXT.X.R V w , = % , 2 u u x R q.N.B.    ",
"  -.$.W 8.e.@.R n t 9 9 0 t n *.Q.#X#XY.^ M d e 9 9 0 s I / #.r.r.r.N.D.    ",
"  y.$.+.=.%.! b b x d t t t d ! z.oX#XE.X.J g y 8 : 0 K I / #.r.8.1.f.W.    ",
"  b.$.) X.n n @.@.Q R b f f s d &.~.<X~.%.J t : $ , G G Z U Y K ^ 1.n././.  ",
"  b.:.Q n b d 3 F | | H g g b d ! Q.6XXXr.L f * . X | I.U.~ u t n :.m.(._.  ",
"  b.8.Q n r o . [ =X=XL...I ^ J E [.rX>Xg.1.2.~ X X [ I.L.g.2.E Q u./.{._.  ",
"  v.b.:.! b 9 X m .X.XT.>.x.N.f.=.+XyX7XE.A.Q.L.2.h.L.Y.J.p.*.r.V.`.{.%XOX  ",
"u.Z.Z.v.:.+.J J { h.T.x.E.#XXXC.t.<X0X0X[.T.@X#XQ.h.5.2.3.r.j.C.F.$X$X{.`.  ",
"u.D.F.(.Z.v.:.X.@.3.t.T.~.XXOXz.z.3XyX7XoX].OX6X-X#X#XXXXX].Q.Q.}.2X<X$X_.R.",
"y.N.(.}.{.F.Z.G.T.E.~.].XX-XXXf.z.3X0X0X+X[.+X6X4X#XXX#X#X#X#X&X2XqX6X*X_.A.",
"y.Z.F.}.3X+X[.[.XXoXOX#X7X4X].t.z.1XrX0X+XXXoX4X9X9X4X&X4X4X4X4XqX7X2X#X_.g.",
"f.v./.}.,X>X>X>X>X4X4X9X9X3XF.i.z.>XyX0X+X].XX&X9X9XrXtX0X0X0X0XeX2X<X@X(.d.",
"f.u.F.[.,X2X5X5X7X9X9X9X7X,XF.4.G.1X0X5X>X].XX<X9XeXyX9XyXyXyXtX9X2X#XXX_.f.",
"$.r.A.'.,X>X1X5X9X9X0X7X7X<XG.=.S.1X0X5X+X].[.+XeXyXyXyXyXyX0X9X4X3X#XXXW.d.",
"  8.m.~.oXoX>X5X5X0X0X0X0X4XC.4.F.1X0X5X,X[.R.oX7XyXiXuXyXyX0X9X4X>X#X|.W.s.",
"  1.u.R.~.oX,X>X5X5X0X0X0X2XC.z.,X5XpX0X>XXX[.~.7XyXyXyX0XtX9X4X4X>XOXW.Y.q.",
"  $.t.A.~.^.oX>X5X5X5X5X1XoXj.z.oXeXiXyX4X[.oX[.9XyXyX0X9X5X4X4X>X#XXX_.L.<.",
"  #.e.f.Y.K.oXoX,X>X5X5X1XS.=.*.!.,X1X1X~.x.T.~.#XtX0X9X9X9X4X>X#X@XQ.Q.N.<.",
"  $.8.u.Y.~.~.oXoX>X>X#XoXh...g %.x.T.T.3.f g 5.~.9X9X9X7X6X4X-X#XOXXXW.d.} ",
"  ` 1.y.C.Q.].~.oXoXoX#X<Xx.n y y E X.&.^ E P *.(.9X9X8X4X4X4X-X#X@XQ.W.d.0.",
"    8.y.f.D.Q.~.].[.[.<X6X~.L L L b L #.5.t.4.*.#XyXtX9X4X-X>X>X@X#X|.W.d.  ",
"    $.w.y.S.Q.Q.Q.].oX<X6X$Xi.L ! #.#.g.Q.E.R.>XeXyXeX9X9X4X#X#X#XXX|.W.M.  ",
"    7.w.n.D.E.R.Q.'.+X2X6X2XOXe.X.f.h.R.;X@X#X6XtXyXyXeX7X<X&XXXOXXX_.P.M.  ",
"    ;.8.u.A.S.F.E._.{.<X<X*X$XR.L.@X_.|.;X;X%X:X8XwXeX9X8X4X&X+XXX|.Q.R.n.  ",
"      8.y.N.A.R.E.F.t.{.*X*XOX`. X8X&X_.%X8X;X:X:X:X6X;X4X&X%X@XQ.Q.|.P.M.  ",
"      7.y.u.m.B.E./.R.`.%X%X`.).%XwX8X-X-XwX;X:X:X:X@X|.OX@X$X%X@X|.Q.L.    ",
"        w.u.n.D.D.R.B.R.`. X`._.].-XtXtX7X>X#X-X:X%X@X|. X_.$XOXQ.W.R.M.    ",
"        w.w.n.D.B.F.B.N.N.P.N.r.2.2.k.^.H.p.6.h.Y.R.N.M.).).OX@X_.P.P.P.    ",
"        0.9.9.N.D.B.D.y./ K d q q h N o...M h h M I I W 8.R.`.{.W.P.L.      ",
"        9.9.<.w.m.V.w.8.1.2.I o.O.p.H.p.p.^.K.H.l.h.E.].F.D./.).N.M.M.      ",
"          9.7.$.b.n.m././.m.1.o.>.l.H.H.k.K.K.k.p.x./.'.OX(./.P.B.M.d.      ",
"            9.7.9.w.w.8.B.m.1.X...O.>.>.c.c.6.>.5.f.E./.(./.D.B.B.M.        ",
"            9.9.8.7.-.-.y.b.y.) R L L P ..P E X.1.A.E.D.B.D.M.B.B.          ",
"              7.7.7.' ;.7.8.y.8.%.X.^ Q ! E X.%.y.m.m.m.D.B.B.B.M.          ",
"                  } } 9.b.b.b.b.b.b.u.m.R.R.D./.{.`.`.`.).).P.B.            ",
"                  ' _ b.V.B.D.`.*X%X%X%X&X6XwXwXwX;X*X%X XP.n.              ",
"                      n.M.).`.%X:X%X;X;X:X8XwXwX;X;X:X X`.M.                ",
"                      } | B./.`.%X%X%X%X%X:X:X:X%X@X XP.P.                  ",
"                        ( 7.n.M./.)..X%X X X X X`.).M.n.                    ",
"                          ' ' } n.M.P.P.U.P.M.P.M.a.|                       ",
"                            T T ] 7.0.} <.} _ _ ] _                         ",
"                                A A A U U U A Z                             "
};
